<svg width="24" height="24" viewBox="0 0 24 24" fill="none" xmlns="http://www.w3.org/2000/svg">
<path fill-rule="evenodd" clip-rule="evenodd" d="M17.3827 5.40767C16.8935 5.40767 16.4524 5.70238 16.2652 6.15438C16.078 6.60637 16.1815 7.12664 16.5274 7.47259C16.8734 7.81853 17.3936 7.92202 17.8456 7.7348C18.2976 7.54757 18.5923 7.10651 18.5923 6.61727C18.5923 5.94923 18.0508 5.40767 17.3827 5.40767ZM22.0195 7.84696C21.9999 7.01062 21.8433 6.18316 21.5559 5.39752C21.2996 4.72532 20.9006 4.11663 20.3866 3.61336C19.8874 3.09669 19.2773 2.70029 18.6024 2.45416C17.8189 2.15797 16.9905 1.99775 16.153 1.9804C15.0845 1.91992 14.7418 1.91992 12 1.91992C9.25825 1.91992 8.91553 1.91992 7.84705 1.9804C7.00956 1.99775 6.18118 2.15797 5.39761 2.45416C4.72394 2.70278 4.11436 3.09884 3.61345 3.61336C3.09678 4.1125 2.70038 4.7226 2.45425 5.39752C2.15806 6.18108 1.99784 7.00947 1.98049 7.84696C1.92001 8.91544 1.92001 9.25816 1.92001 11.9999C1.92001 14.7417 1.92001 15.0844 1.98049 16.1529C1.99784 16.9904 2.15806 17.8188 2.45425 18.6023C2.70038 19.2772 3.09678 19.8873 3.61345 20.3865C4.11436 20.901 4.72394 21.2971 5.39761 21.5457C6.18118 21.8419 7.00956 22.0021 7.84705 22.0194C8.91553 22.0799 9.25825 22.0799 12 22.0799C14.7418 22.0799 15.0845 22.0799 16.153 22.0194C16.9905 22.0021 17.8189 21.8419 18.6024 21.5457C19.2773 21.2996 19.8874 20.9032 20.3866 20.3865C20.9029 19.8851 21.3022 19.2759 21.5559 18.6023C21.8433 17.8167 21.9999 16.9892 22.0195 16.1529C22.0195 15.0844 22.08 14.7417 22.08 11.9999C22.08 9.25816 22.08 8.91544 22.0195 7.84696ZM20.2051 16.0327C20.1978 16.6725 20.0819 17.3065 19.8624 17.9076C19.7015 18.3462 19.443 18.7426 19.1064 19.0668C18.7795 19.3999 18.3839 19.6579 17.9472 19.8228C17.3462 20.0423 16.7122 20.1581 16.0723 20.1655C15.0643 20.2159 14.6914 20.226 12.0403 20.226C9.3893 20.226 9.01634 20.226 8.00834 20.1655C7.34396 20.1779 6.68241 20.0756 6.05282 19.8631C5.63529 19.6898 5.25787 19.4325 4.94402 19.1071C4.60945 18.7833 4.35418 18.3866 4.1981 17.9479C3.952 17.3382 3.81551 16.6898 3.7949 16.0327C3.7949 15.0247 3.73442 14.6517 3.73442 12.0007C3.73442 9.34965 3.73442 8.97669 3.7949 7.96869C3.79942 7.31455 3.91883 6.66629 4.1477 6.05349C4.32516 5.62802 4.59753 5.24876 4.94402 4.94469C5.25026 4.5981 5.62874 4.32285 6.05282 4.13829C6.66725 3.91657 7.31483 3.80069 7.96802 3.79557C8.97602 3.79557 9.34898 3.73509 12 3.73509C14.6511 3.73509 15.024 3.73509 16.032 3.79557C16.6719 3.8029 17.3058 3.91879 17.9069 4.13829C18.365 4.30829 18.7761 4.58467 19.1064 4.94469C19.4367 5.25432 19.6949 5.63288 19.8624 6.05349C20.0865 6.66729 20.2024 7.31528 20.2051 7.96869C20.2555 8.97669 20.2656 9.34965 20.2656 12.0007C20.2656 14.6517 20.2555 15.0247 20.2051 16.0327ZM12 6.82888C9.14545 6.83444 6.83535 9.15205 6.83906 12.0066C6.84277 14.8612 9.15888 17.1728 12.0134 17.1709C14.868 17.1691 17.1811 14.8545 17.1811 11.9999C17.1838 10.6259 16.6385 9.30753 15.666 8.33689C14.6935 7.36626 13.374 6.8235 12 6.82888ZM12 15.3553C10.1462 15.3553 8.64338 13.8525 8.64338 11.9987C8.64338 10.1449 10.1462 8.64205 12 8.64205C13.8538 8.64205 15.3567 10.1449 15.3567 11.9987C15.3567 12.8889 15.003 13.7427 14.3735 14.3722C13.744 15.0017 12.8903 15.3553 12 15.3553Z" fill="white"/>
</svg>
