<svg width="24" height="24" viewBox="0 0 24 24" fill="none" xmlns="http://www.w3.org/2000/svg">
<path fill-rule="evenodd" clip-rule="evenodd" d="M20.9712 1.91992H3.02881C2.41644 1.91992 1.92001 2.41635 1.92001 3.02872V20.9711C1.92001 21.2652 2.03683 21.5472 2.24477 21.7552C2.45271 21.9631 2.73474 22.0799 3.02881 22.0799H12.6855V14.2679H10.0647V11.2439H12.6855V8.97592C12.5756 7.89808 12.9476 6.82678 13.702 6.0491C14.4563 5.27143 15.5158 4.8669 16.5965 4.94392C17.381 4.93909 18.1652 4.97948 18.9451 5.06488V7.78648H17.3424C16.0723 7.78648 15.8304 8.39128 15.8304 9.26824V11.2137H18.8544L18.4613 14.2377H15.8304V22.0799H20.9712C21.2653 22.0799 21.5473 21.9631 21.7553 21.7552C21.9632 21.5472 22.08 21.2652 22.08 20.9711V3.02872C22.08 2.73465 21.9632 2.45262 21.7553 2.24468C21.5473 2.03674 21.2653 1.91992 20.9712 1.91992Z" fill="white"/>
</svg>
