<svg width="156" height="40" viewBox="0 0 156 40" fill="none" xmlns="http://www.w3.org/2000/svg">
<path d="M8.56568 33.4907C10.7117 33.3976 12.766 32.5945 14.4062 31.2074C16.6126 29.1214 18.4577 26.6837 19.8661 23.9937C20.015 23.762 20.197 23.4808 20.4287 23.0837C17.8145 23.0837 17.7814 24.9533 17.7152 24.9533C17.6491 24.9533 16.8218 23.0671 20.8919 22.2895C22.9091 18.5651 25.8058 15.3901 29.3301 13.0407C28.7013 12.9414 28.023 12.809 27.2288 12.6436C25.1184 12.1711 22.97 11.8887 20.8092 11.7998H19.3863C19.8602 12.7237 20.1257 13.7403 20.164 14.7779C20.2398 17.4899 19.3018 20.1328 17.5332 22.1902C16.8153 23.2271 15.8818 24.0965 14.7967 24.739C13.7115 25.3816 12.5003 25.782 11.246 25.9129H10.9978C10.1572 25.932 9.34082 25.6303 8.71459 25.0691C8.37686 24.7601 8.10691 24.3845 7.9218 23.9658C7.73668 23.5472 7.64044 23.0947 7.63915 22.637C7.67699 21.3298 7.97272 20.043 8.50936 18.8505C9.046 17.6579 9.81297 16.5832 10.7662 15.6879C12.6951 13.5317 15.1789 11.9464 17.9469 11.1049C16.4909 8.78853 11.8582 9.45034 11.8582 9.45034C11.8582 9.45034 16.8218 7.79581 18.8569 10.7574C20.2196 10.3964 21.6177 10.1856 23.0263 10.1287H23.7543C24.4792 10.1322 25.2031 10.182 25.9217 10.2776C26.5008 10.3603 28.6517 10.6581 32.2751 11.32C33.7389 10.6598 35.2701 10.1605 36.8416 9.83088C34.2088 5.30018 29.8839 2.00094 24.8185 0.658955C19.7531 -0.683027 14.3621 0.0421774 9.8314 2.67503C5.3007 5.30789 2.00146 9.63272 0.659474 14.6981C-0.682508 19.7635 0.0426951 25.1546 2.67555 29.6853C2.7292 29.3252 2.87132 28.9841 3.08918 28.6925C3.26993 28.4497 3.50891 28.2562 3.78409 28.13C4.02176 28.0154 4.28135 27.9533 4.54517 27.948C4.73847 27.9493 4.92962 27.9887 5.10771 28.0638C5.30685 28.1475 5.48281 28.278 5.62062 28.4444C5.80032 28.6555 5.91523 28.914 5.95152 29.1889C5.98157 29.4554 5.93569 29.725 5.81916 29.9665C5.78192 30.0561 5.73175 30.1397 5.67025 30.2147L5.53789 30.3636C5.38927 30.5011 5.21497 30.608 5.02499 30.678C4.87133 30.6997 4.71538 30.6997 4.56172 30.678C4.30269 30.683 4.04844 30.6079 3.83372 30.4629C3.67508 30.3652 3.54407 30.2285 3.45318 30.0658V30.2974C3.47062 30.7061 3.60247 31.1017 3.83372 31.4391L3.99918 31.6707C4.27595 32.0146 4.61219 32.306 4.9919 32.5311C5.94246 33.0938 7.0311 33.3802 8.13551 33.3583L8.56568 33.4907Z" fill="white"/>
<path d="M35.1708 12.0327C36.1454 12.206 37.1284 12.3275 38.1159 12.3967C37.8511 11.8011 37.5699 11.222 37.2555 10.7422C35.984 10.9619 34.741 11.3226 33.5493 11.8176L35.1708 12.0327Z" fill="white"/>
<path d="M11.4617 16.1016C10.5151 16.9298 9.75128 17.9459 9.21863 19.0853C8.68598 20.2246 8.3962 21.4624 8.36771 22.7198C8.37864 23.4226 8.66361 24.0935 9.16188 24.5894C9.59972 25.0308 10.1947 25.2807 10.8164 25.2843H10.9653C12.9011 25.185 14.7873 23.911 16.5576 21.4623C18.219 19.3977 19.1032 16.8155 19.056 14.1658C19.0111 13.4433 18.8137 12.7385 18.4769 12.0977C15.7812 12.676 13.3306 14.0747 11.4617 16.1016Z" fill="white"/>
<path d="M38.2462 13.8017C37.8491 13.8017 37.4521 13.8017 37.0384 13.8017C34.8706 13.7708 32.7081 13.5772 30.5692 13.2227C29.1059 14.0532 27.8323 15.1803 26.83 16.5317C25.458 18.4054 24.2774 20.4119 23.3058 22.5211L24.4143 22.6369C24.6235 22.0133 25.0139 21.4661 25.5355 21.0653C26.0571 20.6645 26.6863 20.4283 27.3429 20.3868C28.2363 20.3868 28.7988 20.8666 28.7988 21.6111C28.7903 21.9127 28.6995 22.2063 28.5362 22.46C28.3729 22.7137 28.1433 22.9179 27.8723 23.0506C27.1656 23.407 26.3799 23.5778 25.5891 23.5469H25.3574C24.1 26.856 21.734 26.6409 21.734 26.6409C21.734 26.6409 23.0742 26.4258 24.0669 23.4146L23.1734 23.2822H23.008L22.8922 23.4973C22.7598 23.7455 22.6109 24.0598 22.4289 24.4404C21.7581 25.824 20.978 27.1518 20.096 28.4113C18.949 29.9844 17.4832 31.298 15.7942 32.2663C13.7847 33.4688 11.514 34.167 9.1761 34.3014H8.4481C7.50285 34.3124 6.5627 34.1613 5.66849 33.8547C8.38334 36.713 11.8919 38.6929 15.7421 39.5393C19.5922 40.3858 23.6077 40.06 27.271 38.6039C30.9344 37.1478 34.0778 34.6282 36.2964 31.3696C38.5149 28.111 39.7069 24.2627 39.7188 20.3206C39.7202 18.0669 39.3398 15.8291 38.5937 13.7025L38.2462 13.8017Z" fill="white"/>
<path d="M28.0221 21.6271C28.0221 21.3624 27.9393 21.0977 27.3933 21.0977C26.8473 21.0977 26.1524 21.6437 25.7388 22.7522C26.3103 22.7723 26.8782 22.6531 27.3933 22.4047C28.0221 22.0738 28.0221 21.6437 28.0221 21.6271Z" fill="white"/>
<path d="M49.3833 35.5744H51.5342V30.5777H55.2073V28.6088H51.5342V26.0773H56.0842V24.125H49.3833V35.5744Z" fill="white"/>
<path d="M59.8233 24.1094H57.6724V35.5753H59.8233V24.1094Z" fill="white"/>
<path d="M70.7091 31.4223L62.2875 23.7949L62.2544 35.5752H64.4053L64.3722 28.5765L72.8103 36.0054L72.8434 24.1093H70.6925L70.7091 31.4223Z" fill="white"/>
<path d="M77.4268 30.4949H81.1826V28.5426H77.4268V26.0773H82.0926V24.125H75.2759V35.5744H82.5558V33.622H77.4268V30.4949Z" fill="white"/>
<path d="M86.4933 26.8901C86.4933 26.0959 87.2378 25.765 88.0154 25.765C88.8466 25.8199 89.6265 26.1862 90.1994 26.7908L91.2583 25.1363C90.3659 24.2849 89.1826 23.8056 87.9493 23.7961C87.495 23.7361 87.0331 23.771 86.5931 23.8988C86.153 24.0265 85.7442 24.2443 85.3927 24.5382C85.0412 24.8322 84.7545 25.196 84.5509 25.6065C84.3474 26.0171 84.2313 26.4654 84.21 26.9232C84.2597 30.4804 89.3556 30.0999 89.3556 32.5321C89.3556 33.3593 88.7434 33.9053 87.5687 33.9053C86.4676 33.869 85.4187 33.4271 84.6236 32.6644L83.4986 34.2031C84.5573 35.2085 85.9445 35.7963 87.4033 35.8577C90.0836 35.8577 91.6389 34.2859 91.6389 32.5486C91.6223 28.4454 86.4933 28.9086 86.4933 26.8901Z" fill="white"/>
<path d="M92.4829 26.0773H95.8582V35.5744H98.0091V26.0773H101.401V24.125H92.4829V26.0773Z" fill="white"/>
<path d="M112.254 33.9046C111.724 33.9112 111.198 33.8133 110.706 33.6164C110.213 33.4196 109.765 33.1277 109.385 32.7574C109.006 32.3871 108.703 31.9457 108.494 31.4584C108.285 30.9711 108.174 30.4474 108.168 29.9172C108.124 29.3945 108.19 28.8684 108.359 28.3721C108.529 27.8757 108.799 27.4198 109.153 27.0329C109.508 26.6461 109.938 26.3366 110.418 26.124C110.897 25.9114 111.415 25.8002 111.94 25.7974C113.13 25.7571 114.288 26.1848 115.166 26.9887L116.308 25.5162C115.751 24.9582 115.083 24.5228 114.348 24.2379C113.613 23.953 112.827 23.8248 112.039 23.8616C111.24 23.8395 110.444 23.9781 109.699 24.2694C108.954 24.5607 108.275 24.9986 107.702 25.5572C107.13 26.1158 106.676 26.7838 106.366 27.5213C106.057 28.2589 105.898 29.0512 105.901 29.851C105.92 30.6615 106.1 31.4601 106.429 32.2008C106.759 32.9415 107.232 33.6096 107.821 34.1664C108.41 34.7233 109.104 35.1579 109.862 35.4453C110.62 35.7326 111.428 35.8669 112.238 35.8405C112.997 35.8776 113.755 35.7621 114.469 35.5006C115.182 35.2391 115.836 34.8371 116.391 34.3183L115.398 32.8954C114.515 33.6164 113.392 33.977 112.254 33.9046Z" fill="white"/>
<path d="M120.245 24.1094H118.094V35.5753H125.027V33.6229H120.245V24.1094Z" fill="white"/>
<path d="M133.498 33.3251C132.823 33.7416 132.041 33.9542 131.248 33.9373C128.915 33.9373 128.319 32.9942 128.319 30.1153V24.1094H126.168V31.3562C126.168 34.3675 127.823 35.8566 130.9 35.8566C131.77 35.9218 132.643 35.8071 133.465 35.5195C134.288 35.232 135.043 34.7779 135.682 34.1855V24.1094H133.531L133.498 33.3251Z" fill="white"/>
<path d="M143.592 29.3377C144.036 29.1518 144.423 28.8518 144.713 28.4683C145.004 28.0848 145.188 27.6313 145.247 27.1537C145.247 24.7381 143.278 24.1094 140.895 24.1094H138.049V35.5918H141.358C144.552 35.5918 146.09 34.2847 146.09 32.1339C146.022 31.4639 145.744 30.8327 145.295 30.3305C144.846 29.8283 144.25 29.4808 143.592 29.3377ZM140.283 26.0286H141.375C142.318 26.0286 143.029 26.2768 143.029 27.3026C143.029 28.3284 142.351 28.709 141.176 28.709H140.266L140.283 26.0286ZM141.937 33.5733H140.283V30.711H141.838C143.195 30.711 143.956 31.3562 143.956 32.0677C143.956 33.0769 143.261 33.6229 141.838 33.6229L141.937 33.5733Z" fill="white"/>
<path d="M150.011 26.8882C150.011 26.094 150.755 25.7631 151.533 25.7631C152.37 25.8138 153.156 26.1805 153.733 26.7889L154.776 25.1343C153.883 24.2829 152.7 23.8037 151.467 23.7942C151.012 23.7341 150.551 23.7691 150.11 23.8968C149.67 24.0245 149.262 24.2423 148.91 24.5363C148.559 24.8303 148.272 25.194 148.068 25.6046C147.865 26.0151 147.749 26.4635 147.727 26.9212C147.727 30.4288 152.823 30.0483 152.823 32.4805C152.823 33.3077 152.195 33.8537 151.036 33.8537C149.931 33.8138 148.878 33.3726 148.075 32.6128L146.95 34.1515C148.01 35.1544 149.396 35.7418 150.854 35.8061C153.551 35.8061 155.107 34.2343 155.107 32.497C155.156 28.4434 150.011 28.9067 150.011 26.8882Z" fill="white"/>
<path d="M52.0458 17.6062H52.9557V8.85369H55.7354V8.04297H49.2661V8.85369H52.0458V17.6062Z" fill="white"/>
<path d="M65.6797 17.6071H66.5897V8.02734H65.6797V12.3126H60.4183V8.02734H59.5083V17.6071H60.4183V13.1399H65.6797V17.6071Z" fill="white"/>
<path d="M76.7645 16.7789H72.2972V12.8742H75.5567V12.0635H72.2972V8.85369H76.3674V8.04297H71.3872V17.5896H76.7645V16.7789Z" fill="white"/>
<path d="M91.0101 10.7407C91.0979 10.5515 91.1592 10.351 91.1921 10.1451C91.2119 10.3518 91.2679 10.5534 91.3576 10.7407L94.3192 17.9875L97.6283 8.06034H96.619L94.3192 15.241C94.302 15.4115 94.302 15.5834 94.3192 15.7539C94.3351 15.5833 94.3351 15.4116 94.3192 15.241L91.1756 7.71289L88.3629 15.241C88.3193 15.409 88.2916 15.5807 88.2802 15.7539C88.2961 15.5833 88.2961 15.4116 88.2802 15.241L85.9638 8.02725H84.938L88.2471 17.9544L91.0101 10.7407Z" fill="white"/>
<path d="M110.533 12.8581C110.533 11.5417 110.01 10.2792 109.079 9.34834C108.149 8.41748 106.886 7.89453 105.57 7.89453C104.588 7.89453 103.628 8.18564 102.812 8.73105C101.996 9.27646 101.36 10.0517 100.984 10.9586C100.608 11.8656 100.51 12.8636 100.701 13.8265C100.893 14.7893 101.366 15.6737 102.06 16.3679C102.754 17.0621 103.638 17.5348 104.601 17.7264C105.564 17.9179 106.562 17.8196 107.469 17.4439C108.376 17.0682 109.151 16.432 109.697 15.6158C110.242 14.7995 110.533 13.8398 110.533 12.8581ZM105.404 16.9614C104.317 16.927 103.286 16.4708 102.529 15.6895C101.773 14.9082 101.35 13.863 101.351 12.7754C101.364 11.9607 101.618 11.1683 102.082 10.4982C102.545 9.82817 103.197 9.31061 103.955 9.01099C104.712 8.71137 105.542 8.64315 106.338 8.81494C107.135 8.98673 107.863 9.39083 108.429 9.97614C108.996 10.5615 109.377 11.3017 109.523 12.1033C109.669 12.9048 109.574 13.7317 109.25 14.4794C108.926 15.227 108.388 15.8619 107.704 16.3037C107.019 16.7455 106.219 16.9743 105.404 16.9614Z" fill="white"/>
<path d="M115.631 13.8037H116.161L119.95 17.6422H121.29L117.286 13.8037C117.665 13.793 118.039 13.7074 118.385 13.5517C118.732 13.396 119.044 13.1733 119.304 12.8965C119.563 12.6197 119.766 12.2942 119.9 11.9388C120.033 11.5834 120.095 11.205 120.082 10.8256C120.082 8.62504 118.13 8.0625 116.591 8.0625H114.721V17.6422H115.631V13.8037ZM115.631 8.84013H116.707C118.146 8.84013 119.122 9.4854 119.122 10.7925C119.122 12.0996 118.278 12.993 116.376 12.993H115.631V8.84013Z" fill="white"/>
<path d="M129.546 16.7798H125.459V8.02734H124.549V17.5905H129.546V16.7798Z" fill="white"/>
<path d="M140.646 12.8273C140.66 12.1617 140.534 11.5005 140.275 10.8873C140.015 10.274 139.629 9.72264 139.142 9.26938C138.654 8.81612 138.076 8.47126 137.445 8.25749C136.815 8.04372 136.146 7.9659 135.483 8.02913H133.333V17.642H135.55C136.21 17.7036 136.876 17.6236 137.504 17.4073C138.131 17.191 138.705 16.8435 139.187 16.3878C139.669 15.9321 140.049 15.3789 140.3 14.7649C140.552 14.1509 140.67 13.4903 140.646 12.8273ZM134.193 16.7816V8.8564H135.417C135.963 8.7946 136.516 8.85076 137.039 9.0211C137.561 9.19143 138.041 9.47196 138.446 9.84372C138.85 10.2155 139.171 10.6698 139.385 11.176C139.598 11.6821 139.701 12.2283 139.686 12.7776C139.718 13.3424 139.625 13.9074 139.413 14.4317C139.201 14.9561 138.875 15.4268 138.458 15.8099C138.042 16.1929 137.546 16.4788 137.006 16.6468C136.465 16.8149 135.895 16.8609 135.335 16.7816H134.193Z" fill="white"/>
<path d="M146.106 8.02734H145.179L144.319 10.5257H144.997L146.106 8.02734Z" fill="white"/>
<path d="M155.187 15.1745C155.187 11.7662 150.72 12.4446 150.72 10.2109C150.737 9.99189 150.797 9.77834 150.897 9.58276C150.997 9.38718 151.135 9.21347 151.303 9.07178C151.471 8.93009 151.665 8.82325 151.875 8.75749C152.084 8.69173 152.305 8.66836 152.524 8.68877C152.868 8.68843 153.208 8.75874 153.524 8.89534C153.84 9.03195 154.125 9.23194 154.36 9.48294L154.856 8.83767C154.547 8.53099 154.18 8.28835 153.777 8.12367C153.374 7.959 152.942 7.87553 152.507 7.87805C152.167 7.84623 151.824 7.88452 151.499 7.99055C151.174 8.09658 150.875 8.26809 150.619 8.4945C150.363 8.7209 150.156 8.99737 150.011 9.30683C149.867 9.61629 149.787 9.95215 149.777 10.2937C149.777 13.1395 154.211 12.5107 154.211 15.2573C154.206 15.506 154.149 15.7509 154.044 15.9766C153.939 16.2022 153.789 16.4038 153.602 16.5685C153.416 16.7332 153.197 16.8576 152.96 16.9337C152.723 17.0099 152.473 17.0362 152.226 17.0111C151.76 17.0233 151.296 16.9317 150.87 16.7428C150.444 16.5539 150.065 16.2725 149.76 15.9191L149.231 16.5809C149.603 16.9809 150.053 17.2993 150.555 17.5158C151.056 17.7322 151.597 17.8421 152.143 17.8383C152.521 17.8771 152.902 17.8378 153.264 17.7226C153.625 17.6075 153.959 17.4191 154.245 17.1692C154.531 16.9192 154.762 16.6131 154.924 16.27C155.086 15.9268 155.176 15.5539 155.187 15.1745Z" fill="white"/>
</svg>
