<svg width="106" height="19" viewBox="0 0 106 19" fill="none" xmlns="http://www.w3.org/2000/svg">
<path d="M8.09375 2.0625L6.0625 6.21875L1.46875 6.875C0.65625 7 0.34375 8 0.9375 8.59375L4.21875 11.8125L3.4375 16.3438C3.3125 17.1562 4.1875 17.7812 4.90625 17.4062L9 15.25L13.0625 17.4062C13.7812 17.7812 14.6562 17.1562 14.5312 16.3438L13.75 11.8125L17.0312 8.59375C17.625 8 17.3125 7 16.5 6.875L11.9375 6.21875L9.875 2.0625C9.53125 1.34375 8.46875 1.3125 8.09375 2.0625Z" fill="#A37303"/>
<path d="M30.0938 2.0625C30.4688 1.3125 31.5312 1.34375 31.875 2.0625L33.9375 6.21875L38.5 6.875C39.3125 7 39.625 8 39.0312 8.59375L35.75 11.8125L36.5312 16.3438C36.6562 17.1562 35.7812 17.7812 35.0625 17.4062L31 15.25L26.9062 17.4062C26.1875 17.7812 25.3125 17.1562 25.4375 16.3438L26.2188 11.8125L22.9375 8.59375C22.3438 8 22.6562 7 23.4688 6.875L28.0625 6.21875L30.0938 2.0625Z" fill="#A37303"/>
<path d="M52.0938 2.0625L50.0625 6.21875L45.4688 6.875C44.6562 7 44.3438 8 44.9375 8.59375L48.2188 11.8125L47.4375 16.3438C47.3125 17.1562 48.1875 17.7812 48.9062 17.4062L53 15.25L57.0625 17.4062C57.7812 17.7812 58.6562 17.1562 58.5312 16.3438L57.75 11.8125L61.0312 8.59375C61.625 8 61.3125 7 60.5 6.875L55.9375 6.21875L53.875 2.0625C53.5312 1.34375 52.4688 1.3125 52.0938 2.0625Z" fill="#A37303"/>
<path d="M74.0938 2.0625C74.4688 1.3125 75.5312 1.34375 75.875 2.0625L77.9375 6.21875L82.5 6.875C83.3125 7 83.625 8 83.0312 8.59375L79.75 11.8125L80.5312 16.3438C80.6562 17.1562 79.7812 17.7812 79.0625 17.4062L75 15.25L70.9062 17.4062C70.1875 17.7812 69.3125 17.1562 69.4375 16.3438L70.2188 11.8125L66.9375 8.59375C66.3438 8 66.6562 7 67.4688 6.875L72.0625 6.21875L74.0938 2.0625Z" fill="#A37303"/>
<path d="M96.0938 2.0625L94.0625 6.21875L89.4688 6.875C88.6562 7 88.3438 8 88.9375 8.59375L92.2188 11.8125L91.4375 16.3438C91.3125 17.1562 92.1875 17.7812 92.9062 17.4062L97 15.25L101.062 17.4062C101.781 17.7812 102.656 17.1562 102.531 16.3438L101.75 11.8125L105.031 8.59375C105.625 8 105.312 7 104.5 6.875L99.9375 6.21875L97.875 2.0625C97.5312 1.34375 96.4688 1.3125 96.0938 2.0625Z" fill="#A37303"/>
</svg>
