<svg width="12" height="18" viewBox="0 0 12 18" fill="none" xmlns="http://www.w3.org/2000/svg">
<g clip-path="url(#clip0_1249_8998)">
<path fill-rule="evenodd" clip-rule="evenodd" d="M10.1933 6.21995C10.3342 6.07912 10.5252 6 10.7243 6C10.9235 6 11.1145 6.07912 11.2553 6.21995C11.3962 6.36078 11.4753 6.55178 11.4753 6.75095C11.4753 6.95011 11.3962 7.14112 11.2553 7.28195L6.53034 12.0059C6.38971 12.1464 6.19909 12.2253 6.00034 12.2253C5.80159 12.2253 5.61096 12.1464 5.47034 12.0059L0.745338 7.28195C0.604508 7.14112 0.525391 6.95011 0.525391 6.75095C0.525391 6.55178 0.604508 6.36078 0.745338 6.21995C0.886168 6.07912 1.07717 6 1.27634 6C1.4755 6 1.66651 6.07912 1.80734 6.21995L6.00034 10.4129L10.1933 6.21995V6.21995Z" fill="#6D6E78"/>
</g>
<defs>
<clipPath id="clip0_1249_8998">
<rect width="12" height="18" fill="white"/>
</clipPath>
</defs>
</svg>
