<svg width="18" height="18" viewBox="0 0 18 18" fill="none" xmlns="http://www.w3.org/2000/svg">
<g clip-path="url(#clip0_1249_9000)">
<path d="M11.75 8.379C11.336 8.379 11 8.043 11 7.629V4.5C11 3.397 10.103 2.5 9 2.5C7.897 2.5 7 3.397 7 4.5V7.627C7 8.041 6.664 8.377 6.25 8.377C5.836 8.377 5.5 8.041 5.5 7.627V4.5C5.5 2.57 7.07 1 9 1C10.93 1 12.5 2.57 12.5 4.5V7.629C12.5 8.043 12.164 8.379 11.75 8.379Z" fill="#509908"/>
<path d="M9 6C5.967 6 3.5 8.467 3.5 11.5C3.5 14.533 5.967 17 9 17C12.033 17 14.5 14.533 14.5 11.5C14.5 8.467 12.033 6 9 6ZM9.75 12C9.75 12.414 9.414 12.75 9 12.75C8.586 12.75 8.25 12.414 8.25 12V11C8.25 10.586 8.586 10.25 9 10.25C9.414 10.25 9.75 10.586 9.75 11V12Z" fill="#509908"/>
</g>
<defs>
<clipPath id="clip0_1249_9000">
<rect width="18" height="18" fill="white"/>
</clipPath>
</defs>
</svg>
