<svg width="20" height="21" viewBox="0 0 20 21" fill="none" xmlns="http://www.w3.org/2000/svg">
<g clip-path="url(#clip0_1292_4488)">
<path d="M13.1467 12.2422V13.7237C13.1467 14.5414 12.4831 15.2052 11.6653 15.2052H7.96177C7.14403 15.2052 6.48036 14.5414 6.48036 13.7237V12.2422H0.554688V16.6866C0.554688 18.3222 1.88056 19.6496 3.51752 19.6496H16.1096C17.7465 19.6496 19.0724 18.3222 19.0724 16.6866V12.2422H13.1467Z" stroke="white" stroke-width="1.5" stroke-linecap="round" stroke-linejoin="round"/>
<path d="M20.5521 4.83558V-0.349609H15.3672" stroke="white" stroke-width="1.5" stroke-linecap="round" stroke-linejoin="round"/>
<path d="M20.1832 0.0214844L13.8872 6.31778" stroke="white" stroke-width="1.5" stroke-linecap="round" stroke-linejoin="round"/>
<path d="M19.0737 12.2428V8.22266" stroke="white" stroke-width="1.5" stroke-linecap="round" stroke-linejoin="round"/>
<path d="M11.9816 1.13281H3.51752C1.88056 1.13281 0.554688 2.46022 0.554688 4.09578V12.2439" stroke="white" stroke-width="1.5" stroke-linecap="round" stroke-linejoin="round"/>
</g>
<defs>
<clipPath id="clip0_1292_4488">
<rect width="20" height="20" fill="white" transform="translate(0 0.205078)"/>
</clipPath>
</defs>
</svg>
