<svg width="20" height="21" viewBox="0 0 20 21" fill="none" xmlns="http://www.w3.org/2000/svg">
<g clip-path="url(#clip0_1292_4487)">
<g clip-path="url(#clip1_1292_4487)">
<path d="M0.046875 20.6152L1.4533 15.4796C0.585783 13.9768 0.129292 12.2718 0.13 10.5251C0.132192 5.06077 4.57944 0.615234 10.0437 0.615234C12.6957 0.616293 15.1848 1.64845 17.0565 3.52168C18.9282 5.39491 19.9584 7.8849 19.9574 10.533C19.9552 15.9973 15.5075 20.4434 10.0438 20.4434H10.0398C8.38053 20.4427 6.75025 20.0266 5.30227 19.2371L0.046875 20.6152ZM5.54574 17.4429L5.84663 17.6214C7.11172 18.372 8.56191 18.769 10.0404 18.7696H10.0438C14.5854 18.7696 18.2817 15.0744 18.2836 10.5324C18.2844 8.33136 17.4282 6.26177 15.8725 4.7048C14.3168 3.14783 12.2479 2.28989 10.0471 2.28905C5.50203 2.28905 1.80563 5.98399 1.80381 10.5257C1.80318 12.0821 2.23882 13.5979 3.06363 14.9094L3.25957 15.2211L2.42714 18.2607L5.54574 17.4429Z" fill="white"/>
<path fill-rule="evenodd" clip-rule="evenodd" d="M7.56738 6.38303C7.36633 5.90015 7.1621 5.96549 7.01005 5.95792C6.86574 5.95074 6.70044 5.94922 6.5353 5.94922C6.37017 5.94922 6.10182 6.01119 5.87475 6.25908C5.6477 6.50699 5.00781 7.10609 5.00781 8.32491C5.00781 9.54374 5.8954 10.7212 6.01926 10.8865C6.1431 11.0518 7.76595 13.553 10.2508 14.6257C10.8418 14.8808 11.3032 15.0331 11.6629 15.1473C12.2564 15.3357 12.7963 15.3091 13.2232 15.2454C13.6991 15.1743 14.6887 14.6463 14.8951 14.0679C15.1015 13.4895 15.1015 12.9937 15.0396 12.8904C14.9777 12.7871 14.8125 12.7251 14.5649 12.6011C14.3171 12.4772 13.0993 11.8781 12.8722 11.7955C12.6452 11.7129 12.4801 11.6715 12.3149 11.9194C12.1498 12.1673 11.6751 12.7251 11.5306 12.8904C11.3861 13.0556 11.2416 13.0763 10.9939 12.9523C10.7462 12.8284 9.94805 12.5669 9.00191 11.7233C8.26556 11.0667 7.76839 10.2557 7.6239 10.0078C7.4794 9.75989 7.60853 9.62585 7.73253 9.50242C7.84395 9.39148 7.98022 9.2132 8.10408 9.06859C8.22792 8.92399 8.26921 8.82069 8.35177 8.65544C8.43435 8.49017 8.39305 8.34556 8.33113 8.22161C8.2692 8.09767 7.77381 6.87882 7.56738 6.38303Z" fill="white"/>
</g>
</g>
<defs>
<clipPath id="clip0_1292_4487">
<rect width="20" height="20" fill="white" transform="translate(0 0.615234)"/>
</clipPath>
<clipPath id="clip1_1292_4487">
<rect width="20" height="20" fill="white" transform="translate(0 0.615234)"/>
</clipPath>
</defs>
</svg>
