<svg width="20" height="20" viewBox="0 0 20 20" fill="none" xmlns="http://www.w3.org/2000/svg">
<g clip-path="url(#clip0_1249_16839)">
<g clip-path="url(#clip1_1249_16839)">
<path d="M16.7758 3.15541C18.6508 5.03041 19.8115 7.48577 19.8115 10.1643C19.8115 15.6108 15.258 20.0751 9.76688 20.0751C8.1151 20.0751 6.50795 19.6286 5.03474 18.8697L-0.188477 20.209L1.19545 15.0751C0.347238 13.6018 -0.143834 11.9054 -0.143834 10.1197C-0.143834 4.67327 4.32045 0.208984 9.76688 0.208984C12.4455 0.208984 14.9455 1.28041 16.7758 3.15541ZM9.76688 18.3786C14.3205 18.3786 18.1151 14.6733 18.1151 10.1643C18.1151 7.9322 17.1776 5.87863 15.6151 4.31613C14.0526 2.75363 11.999 1.90541 9.81152 1.90541C5.25795 1.90541 1.55259 5.61077 1.55259 10.1197C1.55259 11.6822 1.99902 13.2001 2.80259 14.5393L3.02581 14.8518L2.17759 17.8876L5.3026 17.0393L5.57045 17.2179C6.8651 17.9768 8.29367 18.3786 9.76688 18.3786ZM14.3205 12.2179C14.5437 12.3518 14.7222 12.3965 14.7669 12.5304C14.8562 12.6197 14.8562 13.1108 14.633 13.6911C14.4097 14.2715 13.4276 14.8072 12.9812 14.8518C12.1776 14.9858 11.5526 14.9411 9.9901 14.2268C7.4901 13.1554 5.88295 10.6554 5.74902 10.5215C5.6151 10.3429 4.76688 9.1822 4.76688 7.9322C4.76688 6.72684 5.39188 6.14648 5.6151 5.87863C5.83831 5.61077 6.10617 5.56613 6.28474 5.56613C6.41867 5.56613 6.59724 5.56613 6.73117 5.56613C6.90974 5.56613 7.08831 5.52148 7.31152 6.01256C7.4901 6.50363 8.02581 7.70898 8.07045 7.84291C8.1151 7.97684 8.15974 8.11077 8.07045 8.28934C7.62402 9.22684 7.08831 9.1822 7.35617 9.62863C8.33831 11.2804 9.27581 11.8608 10.749 12.5751C10.9722 12.709 11.1062 12.6643 11.2847 12.5304C11.4187 12.3518 11.9097 11.7715 12.0437 11.5483C12.2222 11.2804 12.4008 11.3251 12.624 11.4143C12.8472 11.5036 14.0526 12.084 14.3205 12.2179Z" fill="white"/>
</g>
</g>
<defs>
<clipPath id="clip0_1249_16839">
<rect width="20" height="20" fill="white"/>
</clipPath>
<clipPath id="clip1_1249_16839">
<rect width="20" height="20" fill="white"/>
</clipPath>
</defs>
</svg>
