<svg width="20" height="20" viewBox="0 0 20 20" fill="none" xmlns="http://www.w3.org/2000/svg">
<g clip-path="url(#clip0_1249_16840)">
<g clip-path="url(#clip1_1249_16840)">
<path d="M17.3334 10.9959C17.3315 11.1715 17.2604 11.3392 17.1356 11.4627C17.0107 11.5862 16.8423 11.6554 16.6667 11.6554C16.4911 11.6554 16.3226 11.5862 16.1978 11.4627C16.073 11.3392 16.0019 11.1715 16 10.9959V5C16.0019 4.82444 16.073 4.65671 16.1978 4.53323C16.3226 4.40975 16.4911 4.3405 16.6667 4.3405C16.8423 4.3405 17.0107 4.40975 17.1356 4.53323C17.2604 4.65671 17.3315 4.82444 17.3334 5V10.9959ZM17.1007 15.1688C16.9977 15.257 14.528 17.3294 10 17.3294C5.47203 17.3294 3.0025 15.257 2.89945 15.1688C2.76523 15.0537 2.68222 14.89 2.66866 14.7137C2.65511 14.5374 2.71213 14.3629 2.82719 14.2287C2.94199 14.0946 3.10528 14.0116 3.28123 13.9978C3.45717 13.984 3.63141 14.0406 3.7657 14.1551C3.80484 14.1879 6.01016 15.9959 10.0001 15.9959C14.0401 15.9959 16.2113 14.1748 16.2327 14.1565C16.5117 13.9169 16.9334 13.9491 17.1728 14.2288C17.2879 14.363 17.345 14.5374 17.3314 14.7137C17.3179 14.89 17.2349 15.0537 17.1007 15.1688ZM2.66664 5C2.66854 4.82444 2.73962 4.65671 2.86444 4.53323C2.98926 4.40975 3.15775 4.3405 3.33332 4.3405C3.50889 4.3405 3.67738 4.40975 3.8022 4.53323C3.92702 4.65671 3.9981 4.82444 4 5V10.9959C3.9981 11.1715 3.92702 11.3392 3.8022 11.4627C3.67738 11.5862 3.50889 11.6554 3.33332 11.6554C3.15775 11.6554 2.98926 11.5862 2.86444 11.4627C2.73962 11.3392 2.66854 11.1715 2.66664 10.9959V5ZM6.00008 3.66664C6.00276 3.4916 6.07417 3.32464 6.1989 3.20181C6.32363 3.07898 6.49166 3.01013 6.66672 3.01013C6.84178 3.01013 7.00981 3.07898 7.13454 3.20181C7.25927 3.32464 7.33068 3.4916 7.33336 3.66664V12.573C7.33068 12.748 7.25927 12.915 7.13454 13.0378C7.00981 13.1606 6.84178 13.2295 6.66672 13.2295C6.49166 13.2295 6.32363 13.1606 6.1989 13.0378C6.07417 12.915 6.00276 12.748 6.00008 12.573V3.66664ZM9.33336 3.3293C9.33335 3.24175 9.35059 3.15506 9.38408 3.07417C9.41758 2.99329 9.46669 2.91979 9.52859 2.85789C9.5905 2.79598 9.66399 2.74688 9.74487 2.71338C9.82576 2.67988 9.91245 2.66265 10 2.66266C10.0876 2.66264 10.1743 2.67986 10.2551 2.71336C10.336 2.74685 10.4095 2.79595 10.4715 2.85786C10.5334 2.91977 10.5825 2.99326 10.616 3.07415C10.6495 3.15504 10.6667 3.24174 10.6667 3.3293V12.9959C10.6648 13.1715 10.5937 13.3392 10.4689 13.4627C10.3441 13.5862 10.1756 13.6554 10 13.6554C9.82446 13.6554 9.65598 13.5862 9.53116 13.4627C9.40634 13.3392 9.33526 13.1715 9.33336 12.9959V3.3293ZM12.6667 3.66664C12.6694 3.4916 12.7408 3.32464 12.8655 3.20181C12.9903 3.07898 13.1583 3.01013 13.3334 3.01013C13.5084 3.01013 13.6764 3.07898 13.8012 3.20181C13.9259 3.32464 13.9973 3.4916 14 3.66664V12.573C13.9973 12.748 13.9259 12.915 13.8012 13.0378C13.6764 13.1606 13.5084 13.2295 13.3334 13.2295C13.1583 13.2295 12.9903 13.1606 12.8655 13.0378C12.7408 12.915 12.6694 12.748 12.6667 12.573V3.66664ZM17.5 0H2.5C1.1193 0 0 1.1193 0 2.5V17.5C0 18.8806 1.1193 20 2.5 20H17.5C18.8807 20 20 18.8806 20 17.5V2.5C20 1.1193 18.8807 0 17.5 0Z" fill="white"/>
</g>
</g>
<defs>
<clipPath id="clip0_1249_16840">
<rect width="20" height="20" fill="white"/>
</clipPath>
<clipPath id="clip1_1249_16840">
<rect width="20" height="20" fill="white"/>
</clipPath>
</defs>
</svg>
