<svg width="112" height="112" viewBox="0 0 112 112" fill="none" xmlns="http://www.w3.org/2000/svg">
<g clip-path="url(#clip0_1249_15590)">
<path d="M15.9173 21.16C17.6048 21.16 18.9729 19.7919 18.9729 18.1044C18.9729 16.4169 17.6048 15.0488 15.9173 15.0488C14.2298 15.0488 12.8617 16.4169 12.8617 18.1044C12.8617 19.7919 14.2298 21.16 15.9173 21.16Z" fill="#202124" fill-opacity="0.24"/>
<path d="M15.9173 22.2711C13.5895 22.2711 11.5117 23.8444 10.864 26.0955C10.7606 26.4533 10.9084 26.8366 11.224 27.0333C12.6395 27.9155 14.2617 28.3822 15.9173 28.3822C17.5729 28.3822 19.1962 27.9155 20.6106 27.0333C20.9262 26.8366 21.074 26.4544 20.9706 26.0955C20.3229 23.8444 18.2451 22.2711 15.9173 22.2711Z" fill="#202124" fill-opacity="0.24"/>
<path d="M8.83397 20.9022C8.74397 20.4511 8.30508 20.1577 7.85397 20.2477C7.40285 20.3377 7.10952 20.7766 7.19952 21.2277C7.28952 21.6788 7.72841 21.9722 8.17952 21.8822C8.63063 21.7922 8.92397 21.3533 8.83397 20.9022Z" fill="#202124" fill-opacity="0.24"/>
<path d="M9.38174 15.8344C9.83285 15.7444 10.1262 15.3055 10.0362 14.8544C9.94619 14.4033 9.5073 14.11 9.05619 14.2C8.60508 14.29 8.31174 14.7288 8.40174 15.18C8.49174 15.6311 8.93063 15.9244 9.38174 15.8344Z" fill="#202124" fill-opacity="0.24"/>
<path d="M9.0573 23.1511C8.60619 23.2411 8.31285 23.68 8.40285 24.1311C8.49285 24.5822 8.93174 24.8755 9.38285 24.7855C9.83397 24.6955 10.1273 24.2566 10.0373 23.8055C9.9473 23.3544 9.50841 23.0611 9.0573 23.1511Z" fill="#202124" fill-opacity="0.24"/>
<path d="M8.17952 18.74C8.63063 18.65 8.92397 18.2111 8.83397 17.76C8.74397 17.3088 8.30508 17.0155 7.85397 17.1055C7.40285 17.1955 7.10952 17.6344 7.19952 18.0855C7.28952 18.5366 7.72841 18.83 8.17952 18.74Z" fill="#202124" fill-opacity="0.24"/>
<path d="M12.2595 12.6333C12.1695 12.1822 11.7306 11.8888 11.2795 11.9788C10.8284 12.0688 10.5351 12.5077 10.6251 12.9588C10.7151 13.41 11.154 13.7033 11.6051 13.6133C12.0562 13.5233 12.3495 13.0844 12.2595 12.6333Z" fill="#202124" fill-opacity="0.24"/>
<path d="M14.5084 12.41C14.9595 12.32 15.2529 11.8811 15.1629 11.43C15.0729 10.9788 14.634 10.6855 14.1829 10.7755C13.7317 10.8655 13.4384 11.3044 13.5284 11.7555C13.6184 12.2066 14.0573 12.5 14.5084 12.41Z" fill="#202124" fill-opacity="0.24"/>
<path d="M22.4529 23.1522C22.0017 23.2422 21.7084 23.6811 21.7984 24.1322C21.8884 24.5833 22.3273 24.8766 22.7784 24.7866C23.2295 24.6966 23.5229 24.2577 23.4329 23.8066C23.3429 23.3555 22.904 23.0622 22.4529 23.1522Z" fill="#202124" fill-opacity="0.24"/>
<path d="M23.0006 18.0844C23.0906 18.5355 23.5295 18.8288 23.9806 18.7388C24.4317 18.6488 24.7251 18.21 24.6351 17.7588C24.5451 17.3077 24.1062 17.0144 23.6551 17.1044C23.204 17.1944 22.9106 17.6333 23.0006 18.0844Z" fill="#202124" fill-opacity="0.24"/>
<path d="M20.2306 11.9777C19.7795 12.0677 19.4862 12.5066 19.5762 12.9577C19.6662 13.4088 20.1051 13.7022 20.5562 13.6122C21.0073 13.5222 21.3006 13.0833 21.2106 12.6322C21.1206 12.1811 20.6817 11.8877 20.2306 11.9777Z" fill="#202124" fill-opacity="0.24"/>
<path d="M23.6551 20.2466C23.204 20.3366 22.9106 20.7755 23.0006 21.2266C23.0906 21.6777 23.5295 21.9711 23.9806 21.8811C24.4317 21.7911 24.7251 21.3522 24.6351 20.9011C24.5451 20.45 24.1062 20.1566 23.6551 20.2466Z" fill="#202124" fill-opacity="0.24"/>
<path d="M22.7773 15.8355C23.2284 15.7455 23.5217 15.3066 23.4317 14.8555C23.3417 14.4044 22.9029 14.1111 22.4517 14.2011C22.0006 14.2911 21.7073 14.73 21.7973 15.1811C21.8873 15.6322 22.3262 15.9255 22.7773 15.8355Z" fill="#202124" fill-opacity="0.24"/>
<path d="M17.6506 12.41C18.1017 12.32 18.3951 11.8811 18.3051 11.43C18.2151 10.9788 17.7762 10.6855 17.3251 10.7755C16.874 10.8655 16.5806 11.3044 16.6706 11.7555C16.7606 12.2066 17.1995 12.5 17.6506 12.41Z" fill="#202124" fill-opacity="0.24"/>
<path d="M55.8588 10.4217C57.5463 10.4217 58.9143 9.05365 58.9143 7.36612C58.9143 5.67858 57.5463 4.31056 55.8588 4.31056C54.1712 4.31056 52.8032 5.67858 52.8032 7.36612C52.8032 9.05365 54.1712 10.4217 55.8588 10.4217Z" fill="#202124" fill-opacity="0.24"/>
<path d="M55.8588 11.5328C53.531 11.5328 51.4532 13.1061 50.8054 15.3572C50.7021 15.715 50.8499 16.0983 51.1654 16.295C52.581 17.1772 54.2032 17.6439 55.8588 17.6439C57.5143 17.6439 59.1377 17.1772 60.5521 16.295C60.8677 16.0983 61.0154 15.7161 60.9121 15.3572C60.2643 13.1061 58.1865 11.5328 55.8588 11.5328Z" fill="#202124" fill-opacity="0.24"/>
<path d="M48.7754 10.1639C48.6854 9.71279 48.2465 9.41945 47.7954 9.50945C47.3443 9.59945 47.051 10.0383 47.141 10.4895C47.231 10.9406 47.6699 11.2339 48.121 11.1439C48.5721 11.0539 48.8654 10.615 48.7754 10.1639Z" fill="#202124" fill-opacity="0.24"/>
<path d="M49.3232 5.09612C49.7743 5.00612 50.0677 4.56723 49.9777 4.11612C49.8877 3.66501 49.4488 3.37167 48.9977 3.46167C48.5465 3.55167 48.2532 3.99056 48.3432 4.44167C48.4332 4.89278 48.8721 5.18612 49.3232 5.09612Z" fill="#202124" fill-opacity="0.24"/>
<path d="M48.9988 12.4128C48.5477 12.5028 48.2543 12.9417 48.3443 13.3928C48.4343 13.8439 48.8732 14.1372 49.3243 14.0472C49.7754 13.9572 50.0688 13.5183 49.9788 13.0672C49.8888 12.6161 49.4499 12.3228 48.9988 12.4128Z" fill="#202124" fill-opacity="0.24"/>
<path d="M48.121 8.00167C48.5721 7.91167 48.8654 7.47278 48.7754 7.02167C48.6854 6.57056 48.2465 6.27723 47.7954 6.36723C47.3443 6.45723 47.051 6.89612 47.141 7.34723C47.231 7.79834 47.6699 8.09167 48.121 8.00167Z" fill="#202124" fill-opacity="0.24"/>
<path d="M52.201 1.89501C52.111 1.4439 51.6721 1.15056 51.221 1.24056C50.7699 1.33056 50.4765 1.76945 50.5665 2.22056C50.6565 2.67167 51.0954 2.96501 51.5465 2.87501C51.9977 2.78501 52.291 2.34612 52.201 1.89501Z" fill="#202124" fill-opacity="0.24"/>
<path d="M54.4499 1.67167C54.901 1.58167 55.1943 1.14278 55.1043 0.691674C55.0143 0.240562 54.5754 -0.0527709 54.1243 0.0372291C53.6732 0.127229 53.3799 0.566118 53.4699 1.01723C53.5599 1.46834 53.9988 1.76167 54.4499 1.67167Z" fill="#202124" fill-opacity="0.24"/>
<path d="M62.3943 12.4139C61.9432 12.5039 61.6499 12.9428 61.7399 13.3939C61.8299 13.845 62.2688 14.1383 62.7199 14.0483C63.171 13.9583 63.4643 13.5195 63.3743 13.0683C63.2843 12.6172 62.8454 12.3239 62.3943 12.4139Z" fill="#202124" fill-opacity="0.24"/>
<path d="M62.9421 7.34612C63.0321 7.79723 63.471 8.09056 63.9221 8.00056C64.3732 7.91056 64.6665 7.47167 64.5765 7.02056C64.4865 6.56945 64.0477 6.27612 63.5965 6.36612C63.1454 6.45612 62.8521 6.89501 62.9421 7.34612Z" fill="#202124" fill-opacity="0.24"/>
<path d="M60.1721 1.23945C59.721 1.32945 59.4277 1.76834 59.5177 2.21945C59.6077 2.67056 60.0465 2.9639 60.4977 2.8739C60.9488 2.7839 61.2421 2.34501 61.1521 1.8939C61.0621 1.44278 60.6232 1.14945 60.1721 1.23945Z" fill="#202124" fill-opacity="0.24"/>
<path d="M63.5965 9.50834C63.1454 9.59834 62.8521 10.0372 62.9421 10.4883C63.0321 10.9395 63.471 11.2328 63.9221 11.1428C64.3732 11.0528 64.6665 10.6139 64.5765 10.1628C64.4865 9.71167 64.0477 9.41834 63.5965 9.50834Z" fill="#202124" fill-opacity="0.24"/>
<path d="M62.7188 5.09723C63.1699 5.00723 63.4632 4.56834 63.3732 4.11723C63.2832 3.66612 62.8443 3.37278 62.3932 3.46278C61.9421 3.55278 61.6488 3.99167 61.7388 4.44278C61.8288 4.8939 62.2677 5.18723 62.7188 5.09723Z" fill="#202124" fill-opacity="0.24"/>
<path d="M57.5921 1.67167C58.0432 1.58167 58.3365 1.14278 58.2465 0.691674C58.1565 0.240562 57.7177 -0.0527709 57.2665 0.0372291C56.8154 0.127229 56.5221 0.566118 56.6121 1.01723C56.7021 1.46834 57.141 1.76167 57.5921 1.67167Z" fill="#202124" fill-opacity="0.24"/>
<path d="M55.8588 104.527C57.5463 104.527 58.9143 103.159 58.9143 101.472C58.9143 99.784 57.5463 98.416 55.8588 98.416C54.1712 98.416 52.8032 99.784 52.8032 101.472C52.8032 103.159 54.1712 104.527 55.8588 104.527Z" fill="#202124" fill-opacity="0.24"/>
<path d="M55.8588 105.638C53.531 105.638 51.4532 107.212 50.8055 109.463C50.7021 109.82 50.8499 110.204 51.1654 110.4C52.581 111.283 54.2032 111.749 55.8588 111.749C57.5143 111.749 59.1377 111.283 60.5521 110.4C60.8677 110.204 61.0155 109.822 60.9121 109.463C60.2643 107.212 58.1866 105.638 55.8588 105.638Z" fill="#202124" fill-opacity="0.24"/>
<path d="M48.7754 104.269C48.6854 103.818 48.2466 103.525 47.7954 103.615C47.3443 103.705 47.051 104.144 47.141 104.595C47.231 105.046 47.6699 105.339 48.121 105.249C48.5721 105.159 48.8654 104.72 48.7754 104.269Z" fill="#202124" fill-opacity="0.24"/>
<path d="M49.3232 99.2015C49.7743 99.1115 50.0677 98.6727 49.9777 98.2215C49.8877 97.7704 49.4488 97.4771 48.9977 97.5671C48.5466 97.6571 48.2532 98.096 48.3432 98.5471C48.4332 98.9982 48.8721 99.2915 49.3232 99.2015Z" fill="#202124" fill-opacity="0.24"/>
<path d="M48.9988 106.518C48.5477 106.608 48.2543 107.047 48.3443 107.498C48.4343 107.949 48.8732 108.243 49.3243 108.153C49.7754 108.063 50.0688 107.624 49.9788 107.173C49.8888 106.722 49.4499 106.428 48.9988 106.518Z" fill="#202124" fill-opacity="0.24"/>
<path d="M48.121 102.107C48.5721 102.017 48.8654 101.578 48.7754 101.127C48.6854 100.676 48.2466 100.383 47.7954 100.473C47.3443 100.563 47.051 101.002 47.141 101.453C47.231 101.904 47.6699 102.197 48.121 102.107Z" fill="#202124" fill-opacity="0.24"/>
<path d="M52.201 96.0004C52.111 95.5493 51.6721 95.256 51.221 95.346C50.7699 95.436 50.4766 95.8749 50.5666 96.326C50.6566 96.7771 51.0954 97.0704 51.5466 96.9804C51.9977 96.8904 52.291 96.4515 52.201 96.0004Z" fill="#202124" fill-opacity="0.24"/>
<path d="M54.4499 95.7771C54.901 95.6871 55.1943 95.2482 55.1043 94.7971C55.0143 94.346 54.5754 94.0527 54.1243 94.1427C53.6732 94.2327 53.3799 94.6715 53.4699 95.1227C53.5599 95.5738 53.9988 95.8671 54.4499 95.7771Z" fill="#202124" fill-opacity="0.24"/>
<path d="M62.3943 106.519C61.9432 106.609 61.6499 107.048 61.7399 107.499C61.8299 107.95 62.2688 108.244 62.7199 108.154C63.171 108.064 63.4643 107.625 63.3743 107.174C63.2843 106.723 62.8454 106.429 62.3943 106.519Z" fill="#202124" fill-opacity="0.24"/>
<path d="M62.9421 101.452C63.0321 101.903 63.471 102.196 63.9221 102.106C64.3732 102.016 64.6666 101.577 64.5766 101.126C64.4866 100.675 64.0477 100.382 63.5966 100.472C63.1455 100.562 62.8521 101 62.9421 101.452Z" fill="#202124" fill-opacity="0.24"/>
<path d="M60.1721 95.3449C59.721 95.4349 59.4277 95.8738 59.5177 96.3249C59.6077 96.776 60.0466 97.0693 60.4977 96.9793C60.9488 96.8893 61.2421 96.4504 61.1521 95.9993C61.0621 95.5482 60.6232 95.2549 60.1721 95.3449Z" fill="#202124" fill-opacity="0.24"/>
<path d="M63.5966 103.614C63.1455 103.704 62.8521 104.143 62.9421 104.594C63.0321 105.045 63.471 105.338 63.9221 105.248C64.3732 105.158 64.6666 104.719 64.5766 104.268C64.4866 103.817 64.0477 103.524 63.5966 103.614Z" fill="#202124" fill-opacity="0.24"/>
<path d="M62.7188 99.2027C63.1699 99.1127 63.4632 98.6738 63.3732 98.2227C63.2832 97.7715 62.8443 97.4782 62.3932 97.5682C61.9421 97.6582 61.6488 98.0971 61.7388 98.5482C61.8288 98.9993 62.2677 99.2927 62.7188 99.2027Z" fill="#202124" fill-opacity="0.24"/>
<path d="M57.5921 95.7771C58.0432 95.6871 58.3366 95.2482 58.2466 94.7971C58.1566 94.346 57.7177 94.0527 57.2666 94.1427C56.8154 94.2327 56.5221 94.6715 56.6121 95.1227C56.7021 95.5738 57.141 95.8671 57.5921 95.7771Z" fill="#202124" fill-opacity="0.24"/>
<path d="M102.887 56.9905C104.575 56.9905 105.943 55.6225 105.943 53.935C105.943 52.2474 104.575 50.8794 102.887 50.8794C101.2 50.8794 99.8317 52.2474 99.8317 53.935C99.8317 55.6225 101.2 56.9905 102.887 56.9905Z" fill="#202124" fill-opacity="0.24"/>
<path d="M102.887 58.4097C100.56 58.4097 98.4817 59.983 97.834 62.2341C97.7306 62.5919 97.8784 62.9752 98.194 63.1719C99.6095 64.0541 101.232 64.5208 102.887 64.5208C104.543 64.5208 106.166 64.0541 107.581 63.1719C107.896 62.9752 108.044 62.593 107.941 62.2341C107.293 59.983 105.215 58.4097 102.887 58.4097Z" fill="#202124" fill-opacity="0.24"/>
<path d="M95.804 56.7327C95.714 56.2816 95.2751 55.9883 94.824 56.0783C94.3729 56.1683 94.0795 56.6072 94.1695 57.0583C94.2595 57.5094 94.6984 57.8027 95.1495 57.7127C95.6006 57.6227 95.894 57.1839 95.804 56.7327Z" fill="#202124" fill-opacity="0.24"/>
<path d="M96.3517 51.665C96.8029 51.575 97.0962 51.1361 97.0062 50.685C96.9162 50.2339 96.4773 49.9405 96.0262 50.0305C95.5751 50.1205 95.2817 50.5594 95.3717 51.0105C95.4617 51.4616 95.9006 51.755 96.3517 51.665Z" fill="#202124" fill-opacity="0.24"/>
<path d="M96.0273 58.9816C95.5762 59.0716 95.2829 59.5105 95.3729 59.9616C95.4629 60.4127 95.9017 60.7061 96.3529 60.6161C96.804 60.5261 97.0973 60.0872 97.0073 59.6361C96.9173 59.185 96.4784 58.8916 96.0273 58.9816Z" fill="#202124" fill-opacity="0.24"/>
<path d="M95.1495 54.5705C95.6006 54.4805 95.894 54.0416 95.804 53.5905C95.714 53.1394 95.2751 52.8461 94.824 52.9361C94.3729 53.0261 94.0795 53.465 94.1695 53.9161C94.2595 54.3672 94.6984 54.6605 95.1495 54.5705Z" fill="#202124" fill-opacity="0.24"/>
<path d="M99.2295 48.4639C99.1395 48.0127 98.7006 47.7194 98.2495 47.8094C97.7984 47.8994 97.5051 48.3383 97.5951 48.7894C97.6851 49.2405 98.124 49.5339 98.5751 49.4439C99.0262 49.3539 99.3195 48.915 99.2295 48.4639Z" fill="#202124" fill-opacity="0.24"/>
<path d="M101.478 48.2405C101.93 48.1505 102.223 47.7116 102.133 47.2605C102.043 46.8094 101.604 46.5161 101.153 46.6061C100.702 46.6961 100.408 47.135 100.498 47.5861C100.588 48.0372 101.027 48.3305 101.478 48.2405Z" fill="#202124" fill-opacity="0.24"/>
<path d="M109.423 58.9827C108.972 59.0727 108.678 59.5116 108.768 59.9627C108.858 60.4139 109.297 60.7072 109.748 60.6172C110.2 60.5272 110.493 60.0883 110.403 59.6372C110.313 59.1861 109.874 58.8927 109.423 58.9827Z" fill="#202124" fill-opacity="0.24"/>
<path d="M109.971 53.915C110.061 54.3661 110.5 54.6594 110.951 54.5694C111.402 54.4794 111.695 54.0405 111.605 53.5894C111.515 53.1383 111.076 52.845 110.625 52.935C110.174 53.025 109.881 53.4639 109.971 53.915Z" fill="#202124" fill-opacity="0.24"/>
<path d="M107.201 47.8083C106.75 47.8983 106.456 48.3372 106.546 48.7883C106.636 49.2394 107.075 49.5327 107.526 49.4427C107.977 49.3527 108.271 48.9139 108.181 48.4627C108.091 48.0116 107.652 47.7183 107.201 47.8083Z" fill="#202124" fill-opacity="0.24"/>
<path d="M110.625 56.0772C110.174 56.1672 109.881 56.6061 109.971 57.0572C110.061 57.5083 110.5 57.8016 110.951 57.7116C111.402 57.6216 111.695 57.1827 111.605 56.7316C111.515 56.2805 111.076 55.9872 110.625 56.0772Z" fill="#202124" fill-opacity="0.24"/>
<path d="M109.747 51.6661C110.198 51.5761 110.492 51.1372 110.402 50.6861C110.312 50.235 109.873 49.9416 109.422 50.0316C108.971 50.1216 108.677 50.5605 108.767 51.0116C108.857 51.4627 109.296 51.7561 109.747 51.6661Z" fill="#202124" fill-opacity="0.24"/>
<path d="M104.621 48.2405C105.072 48.1505 105.365 47.7116 105.275 47.2605C105.185 46.8094 104.746 46.5161 104.295 46.6061C103.844 46.6961 103.551 47.135 103.641 47.5861C103.731 48.0372 104.17 48.3305 104.621 48.2405Z" fill="#202124" fill-opacity="0.24"/>
<path d="M95.8202 96.0984C97.5077 96.0984 98.8757 94.7304 98.8757 93.0429C98.8757 91.3553 97.5077 89.9873 95.8202 89.9873C94.1327 89.9873 92.7646 91.3553 92.7646 93.0429C92.7646 94.7304 94.1327 96.0984 95.8202 96.0984Z" fill="#202124" fill-opacity="0.24"/>
<path d="M95.8202 97.2095C93.4924 97.2095 91.4146 98.7829 90.7669 101.034C90.6635 101.392 90.8113 101.775 91.1269 101.972C92.5424 102.854 94.1646 103.321 95.8202 103.321C97.4757 103.321 99.0991 102.854 100.514 101.972C100.829 101.775 100.977 101.393 100.874 101.034C100.226 98.7829 98.148 97.2095 95.8202 97.2095Z" fill="#202124" fill-opacity="0.24"/>
<path d="M88.7369 95.8407C88.6469 95.3895 88.208 95.0962 87.7569 95.1862C87.3057 95.2762 87.0124 95.7151 87.1024 96.1662C87.1924 96.6173 87.6313 96.9107 88.0824 96.8207C88.5335 96.7307 88.8269 96.2918 88.7369 95.8407Z" fill="#202124" fill-opacity="0.24"/>
<path d="M89.2846 90.7729C89.7357 90.6829 90.0291 90.244 89.9391 89.7929C89.8491 89.3418 89.4102 89.0484 88.9591 89.1384C88.508 89.2284 88.2146 89.6673 88.3046 90.1184C88.3946 90.5695 88.8335 90.8629 89.2846 90.7729Z" fill="#202124" fill-opacity="0.24"/>
<path d="M88.9602 98.0895C88.5091 98.1795 88.2157 98.6184 88.3057 99.0695C88.3957 99.5207 88.8346 99.814 89.2858 99.724C89.7369 99.634 90.0302 99.1951 89.9402 98.744C89.8502 98.2929 89.4113 97.9995 88.9602 98.0895Z" fill="#202124" fill-opacity="0.24"/>
<path d="M88.0824 93.6784C88.5335 93.5884 88.8269 93.1495 88.7369 92.6984C88.6469 92.2473 88.208 91.954 87.7569 92.044C87.3057 92.134 87.0124 92.5729 87.1024 93.024C87.1924 93.4751 87.6313 93.7684 88.0824 93.6784Z" fill="#202124" fill-opacity="0.24"/>
<path d="M92.1624 87.5718C92.0724 87.1207 91.6335 86.8273 91.1824 86.9173C90.7313 87.0073 90.438 87.4462 90.528 87.8973C90.618 88.3484 91.0569 88.6418 91.508 88.5518C91.9591 88.4618 92.2524 88.0229 92.1624 87.5718Z" fill="#202124" fill-opacity="0.24"/>
<path d="M94.4113 87.3484C94.8624 87.2584 95.1558 86.8195 95.0658 86.3684C94.9758 85.9173 94.5369 85.624 94.0857 85.714C93.6346 85.804 93.3413 86.2429 93.4313 86.694C93.5213 87.1451 93.9602 87.4384 94.4113 87.3484Z" fill="#202124" fill-opacity="0.24"/>
<path d="M102.356 98.0907C101.905 98.1807 101.611 98.6195 101.701 99.0707C101.791 99.5218 102.23 99.8151 102.681 99.7251C103.132 99.6351 103.426 99.1962 103.336 98.7451C103.246 98.294 102.807 98.0007 102.356 98.0907Z" fill="#202124" fill-opacity="0.24"/>
<path d="M102.904 93.0229C102.994 93.474 103.432 93.7673 103.884 93.6773C104.335 93.5873 104.628 93.1484 104.538 92.6973C104.448 92.2462 104.009 91.9529 103.558 92.0429C103.107 92.1329 102.814 92.5718 102.904 93.0229Z" fill="#202124" fill-opacity="0.24"/>
<path d="M100.134 86.9162C99.6824 87.0062 99.3891 87.4451 99.4791 87.8962C99.5691 88.3473 100.008 88.6407 100.459 88.5507C100.91 88.4607 101.204 88.0218 101.114 87.5707C101.024 87.1195 100.585 86.8262 100.134 86.9162Z" fill="#202124" fill-opacity="0.24"/>
<path d="M103.558 95.1851C103.107 95.2751 102.814 95.714 102.904 96.1651C102.994 96.6162 103.432 96.9095 103.884 96.8195C104.335 96.7295 104.628 96.2907 104.538 95.8395C104.448 95.3884 104.009 95.0951 103.558 95.1851Z" fill="#202124" fill-opacity="0.24"/>
<path d="M102.68 90.774C103.131 90.684 103.425 90.2451 103.335 89.794C103.245 89.3429 102.806 89.0495 102.355 89.1395C101.904 89.2295 101.61 89.6684 101.7 90.1195C101.79 90.5707 102.229 90.864 102.68 90.774Z" fill="#202124" fill-opacity="0.24"/>
<path d="M97.5535 87.3484C98.0046 87.2584 98.298 86.8195 98.208 86.3684C98.118 85.9173 97.6791 85.624 97.228 85.714C96.7769 85.804 96.4835 86.2429 96.5735 86.694C96.6635 87.1451 97.1024 87.4384 97.5535 87.3484Z" fill="#202124" fill-opacity="0.24"/>
<path d="M44.5649 69.491C46.7109 69.3979 48.7652 68.5948 50.4054 67.2078C52.6119 65.1217 54.4569 62.684 55.8654 59.994C56.0143 59.7623 56.1963 59.4811 56.4279 59.084C53.8138 59.084 53.7807 60.9536 53.7145 60.9536C53.6483 60.9536 52.821 59.0674 56.8912 58.2898C58.9084 54.5654 61.8051 51.3903 65.3294 49.0409C64.7006 48.9416 64.0223 48.8092 63.2281 48.6438C61.1177 48.1713 58.9693 47.8889 56.8085 47.8H55.3856C55.8595 48.7239 56.125 49.7405 56.1632 50.7782C56.239 53.4902 55.3011 56.1331 53.5325 58.1905C52.8146 59.2273 51.8811 60.0968 50.7959 60.7393C49.7107 61.3819 48.4995 61.7823 47.2452 61.9132H46.997C46.1564 61.9323 45.34 61.6306 44.7138 61.0694C44.376 60.7604 44.1061 60.3848 43.921 59.9661C43.7359 59.5475 43.6396 59.095 43.6383 58.6372C43.6762 57.3301 43.9719 56.0432 44.5085 54.8507C45.0452 53.6582 45.8122 52.5834 46.7654 51.6882C48.6943 49.5319 51.1781 47.9466 53.9461 47.1051C52.4901 44.7887 47.8574 45.4505 47.8574 45.4505C47.8574 45.4505 52.821 43.796 54.8561 46.7576C56.2188 46.3966 57.617 46.1858 59.0256 46.1289H59.7536C60.4785 46.1324 61.2024 46.1822 61.921 46.2778C62.5001 46.3605 64.651 46.6583 68.2745 47.3202C69.7383 46.66 71.2694 46.1607 72.841 45.8311C70.2081 41.3003 65.8833 38.0011 60.8178 36.6591C55.7524 35.3171 50.3613 36.0423 45.8306 38.6752C41.2998 41.308 38.0006 45.6329 36.6586 50.6983C35.3166 55.7638 36.0418 61.1549 38.6747 65.6856C38.7283 65.3256 38.8705 64.9845 39.0883 64.6929C39.2691 64.45 39.508 64.2565 39.7832 64.1303C40.0209 64.0157 40.2805 63.9536 40.5443 63.9483C40.7376 63.9496 40.9288 63.989 41.1069 64.0641C41.306 64.1478 41.482 64.2784 41.6198 64.4447C41.7995 64.6558 41.9144 64.9144 41.9507 65.1892C41.9807 65.4557 41.9348 65.7253 41.8183 65.9669C41.7811 66.0564 41.7309 66.14 41.6694 66.215L41.537 66.364C41.3884 66.5015 41.2141 66.6083 41.0241 66.6783C40.8705 66.7 40.7145 66.7 40.5609 66.6783C40.3018 66.6833 40.0476 66.6082 39.8329 66.4632C39.6742 66.3655 39.5432 66.2288 39.4523 66.0661V66.2978C39.4698 66.7064 39.6016 67.102 39.8329 67.4394L39.9983 67.671C40.2751 68.0149 40.6113 68.3063 40.991 68.5314C41.9416 69.0941 43.0303 69.3806 44.1347 69.3587L44.5649 69.491Z" fill="#1A1A1A"/>
<path d="M71.1699 48.0314C72.1445 48.2047 73.1276 48.3262 74.115 48.3954C73.8503 47.7998 73.569 47.2207 73.2546 46.7408C71.9831 46.9606 70.7401 47.3213 69.5485 47.8163L71.1699 48.0314Z" fill="#1A1A1A"/>
<path d="M47.4604 52.1014C46.5139 52.9297 45.75 53.9458 45.2173 55.0851C44.6847 56.2245 44.3949 57.4622 44.3664 58.7196C44.3773 59.4225 44.6623 60.0934 45.1606 60.5893C45.5984 61.0307 46.1934 61.2806 46.8151 61.2842H46.964C48.8999 61.1849 50.786 59.9109 52.5564 57.4622C54.2178 55.3975 55.102 52.8153 55.0548 50.1656C55.0098 49.4431 54.8125 48.7383 54.4757 48.0975C51.7799 48.6758 49.3293 50.0745 47.4604 52.1014Z" fill="#1A1A1A"/>
<path d="M74.2454 49.802C73.8483 49.802 73.4512 49.802 73.0376 49.802C70.8697 49.7711 68.7072 49.5775 66.5683 49.2229C65.105 50.0535 63.8314 51.1806 62.829 52.532C61.4571 54.4057 60.2765 56.4122 59.3049 58.5215L60.4134 58.6373C60.6226 58.0136 61.0129 57.4664 61.5346 57.0657C62.0562 56.6649 62.6854 56.4286 63.3419 56.3871C64.2354 56.3871 64.7979 56.8669 64.7979 57.6115C64.7894 57.9131 64.6986 58.2066 64.5353 58.4603C64.372 58.7141 64.1424 58.9183 63.8714 59.0509C63.1647 59.4074 62.379 59.5782 61.5881 59.5473H61.3565C60.099 62.8564 57.733 62.6413 57.733 62.6413C57.733 62.6413 59.0732 62.4262 60.0659 59.4149L59.1725 59.2826H59.007L58.8912 59.4977C58.7589 59.7458 58.6099 60.0602 58.4279 60.4408C57.7572 61.8243 56.9771 63.1522 56.095 64.4117C54.948 65.9848 53.4822 67.2984 51.7932 68.2667C49.7837 69.4692 47.513 70.1675 45.1751 70.3018H44.4471C43.5018 70.3128 42.5616 70.1617 41.6674 69.8551C44.3823 72.7134 47.8909 74.6934 51.7411 75.5398C55.5913 76.3863 59.6067 76.0605 63.2701 74.6044C66.9335 73.1483 70.077 70.6286 72.2955 67.37C74.5141 64.1113 75.7061 60.2631 75.7179 56.3209C75.7193 54.0672 75.3389 51.8295 74.5928 49.7028L74.2454 49.802Z" fill="#1A1A1A"/>
<path d="M64.0217 57.6276C64.0217 57.3628 63.9389 57.0981 63.3929 57.0981C62.8469 57.0981 62.152 57.6441 61.7384 58.7526C62.3099 58.7728 62.8778 58.6535 63.3929 58.4052C64.0217 58.0743 64.0217 57.6441 64.0217 57.6276Z" fill="#1A1A1A"/>
<path d="M95.8202 21.16C97.5077 21.16 98.8757 19.7919 98.8757 18.1044C98.8757 16.4169 97.5077 15.0488 95.8202 15.0488C94.1327 15.0488 92.7646 16.4169 92.7646 18.1044C92.7646 19.7919 94.1327 21.16 95.8202 21.16Z" fill="#202124" fill-opacity="0.24"/>
<path d="M95.8202 22.2711C93.4924 22.2711 91.4146 23.8444 90.7669 26.0955C90.6635 26.4533 90.8113 26.8366 91.1269 27.0333C92.5424 27.9155 94.1646 28.3822 95.8202 28.3822C97.4757 28.3822 99.0991 27.9155 100.514 27.0333C100.829 26.8366 100.977 26.4544 100.874 26.0955C100.226 23.8444 98.148 22.2711 95.8202 22.2711Z" fill="#202124" fill-opacity="0.24"/>
<path d="M88.7369 20.9022C88.6469 20.4511 88.208 20.1577 87.7569 20.2477C87.3057 20.3377 87.0124 20.7766 87.1024 21.2277C87.1924 21.6788 87.6313 21.9722 88.0824 21.8822C88.5335 21.7922 88.8269 21.3533 88.7369 20.9022Z" fill="#202124" fill-opacity="0.24"/>
<path d="M89.2846 15.8344C89.7357 15.7444 90.0291 15.3055 89.9391 14.8544C89.8491 14.4033 89.4102 14.11 88.9591 14.2C88.508 14.29 88.2146 14.7288 88.3046 15.18C88.3946 15.6311 88.8335 15.9244 89.2846 15.8344Z" fill="#202124" fill-opacity="0.24"/>
<path d="M88.9602 23.1511C88.5091 23.2411 88.2157 23.68 88.3057 24.1311C88.3957 24.5822 88.8346 24.8755 89.2858 24.7855C89.7369 24.6955 90.0302 24.2566 89.9402 23.8055C89.8502 23.3544 89.4113 23.0611 88.9602 23.1511Z" fill="#202124" fill-opacity="0.24"/>
<path d="M88.0824 18.74C88.5335 18.65 88.8269 18.2111 88.7369 17.76C88.6469 17.3088 88.208 17.0155 87.7569 17.1055C87.3057 17.1955 87.0124 17.6344 87.1024 18.0855C87.1924 18.5366 87.6313 18.83 88.0824 18.74Z" fill="#202124" fill-opacity="0.24"/>
<path d="M92.1624 12.6333C92.0724 12.1822 91.6335 11.8888 91.1824 11.9788C90.7313 12.0688 90.438 12.5077 90.528 12.9588C90.618 13.41 91.0569 13.7033 91.508 13.6133C91.9591 13.5233 92.2524 13.0844 92.1624 12.6333Z" fill="#202124" fill-opacity="0.24"/>
<path d="M94.4113 12.41C94.8624 12.32 95.1558 11.8811 95.0658 11.43C94.9758 10.9788 94.5369 10.6855 94.0857 10.7755C93.6346 10.8655 93.3413 11.3044 93.4313 11.7555C93.5213 12.2066 93.9602 12.5 94.4113 12.41Z" fill="#202124" fill-opacity="0.24"/>
<path d="M102.356 23.1522C101.905 23.2422 101.611 23.6811 101.701 24.1322C101.791 24.5833 102.23 24.8766 102.681 24.7866C103.132 24.6966 103.426 24.2577 103.336 23.8066C103.246 23.3555 102.807 23.0622 102.356 23.1522Z" fill="#202124" fill-opacity="0.24"/>
<path d="M102.904 18.0844C102.994 18.5355 103.432 18.8288 103.884 18.7388C104.335 18.6488 104.628 18.21 104.538 17.7588C104.448 17.3077 104.009 17.0144 103.558 17.1044C103.107 17.1944 102.814 17.6333 102.904 18.0844Z" fill="#202124" fill-opacity="0.24"/>
<path d="M100.134 11.9777C99.6824 12.0677 99.3891 12.5066 99.4791 12.9577C99.5691 13.4088 100.008 13.7022 100.459 13.6122C100.91 13.5222 101.204 13.0833 101.114 12.6322C101.024 12.1811 100.585 11.8877 100.134 11.9777Z" fill="#202124" fill-opacity="0.24"/>
<path d="M103.558 20.2466C103.107 20.3366 102.814 20.7755 102.904 21.2266C102.994 21.6777 103.432 21.9711 103.884 21.8811C104.335 21.7911 104.628 21.3522 104.538 20.9011C104.448 20.45 104.009 20.1566 103.558 20.2466Z" fill="#202124" fill-opacity="0.24"/>
<path d="M102.68 15.8355C103.131 15.7455 103.425 15.3066 103.335 14.8555C103.245 14.4044 102.806 14.1111 102.355 14.2011C101.904 14.2911 101.61 14.73 101.7 15.1811C101.79 15.6322 102.229 15.9255 102.68 15.8355Z" fill="#202124" fill-opacity="0.24"/>
<path d="M97.5535 12.41C98.0046 12.32 98.298 11.8811 98.208 11.43C98.118 10.9788 97.6791 10.6855 97.228 10.7755C96.7769 10.8655 96.4835 11.3044 96.5735 11.7555C96.6635 12.2066 97.1024 12.5 97.5535 12.41Z" fill="#202124" fill-opacity="0.24"/>
<path d="M15.9173 96.0984C17.6048 96.0984 18.9729 94.7304 18.9729 93.0429C18.9729 91.3553 17.6048 89.9873 15.9173 89.9873C14.2298 89.9873 12.8617 91.3553 12.8617 93.0429C12.8617 94.7304 14.2298 96.0984 15.9173 96.0984Z" fill="#202124" fill-opacity="0.24"/>
<path d="M15.9173 97.2095C13.5895 97.2095 11.5117 98.7829 10.864 101.034C10.7606 101.392 10.9084 101.775 11.224 101.972C12.6395 102.854 14.2617 103.321 15.9173 103.321C17.5729 103.321 19.1962 102.854 20.6106 101.972C20.9262 101.775 21.074 101.393 20.9706 101.034C20.3229 98.7829 18.2451 97.2095 15.9173 97.2095Z" fill="#202124" fill-opacity="0.24"/>
<path d="M8.83397 95.8407C8.74397 95.3895 8.30508 95.0962 7.85397 95.1862C7.40285 95.2762 7.10952 95.7151 7.19952 96.1662C7.28952 96.6173 7.72841 96.9107 8.17952 96.8207C8.63063 96.7307 8.92397 96.2918 8.83397 95.8407Z" fill="#202124" fill-opacity="0.24"/>
<path d="M9.38174 90.7729C9.83285 90.6829 10.1262 90.244 10.0362 89.7929C9.94619 89.3418 9.5073 89.0484 9.05619 89.1384C8.60508 89.2284 8.31174 89.6673 8.40174 90.1184C8.49174 90.5695 8.93063 90.8629 9.38174 90.7729Z" fill="#202124" fill-opacity="0.24"/>
<path d="M9.0573 98.0895C8.60619 98.1795 8.31285 98.6184 8.40285 99.0695C8.49285 99.5207 8.93174 99.814 9.38285 99.724C9.83397 99.634 10.1273 99.1951 10.0373 98.744C9.9473 98.2929 9.50841 97.9995 9.0573 98.0895Z" fill="#202124" fill-opacity="0.24"/>
<path d="M8.17952 93.6784C8.63063 93.5884 8.92397 93.1495 8.83397 92.6984C8.74397 92.2473 8.30508 91.954 7.85397 92.044C7.40285 92.134 7.10952 92.5729 7.19952 93.024C7.28952 93.4751 7.72841 93.7684 8.17952 93.6784Z" fill="#202124" fill-opacity="0.24"/>
<path d="M12.2595 87.5718C12.1695 87.1207 11.7306 86.8273 11.2795 86.9173C10.8284 87.0073 10.5351 87.4462 10.6251 87.8973C10.7151 88.3484 11.154 88.6418 11.6051 88.5518C12.0562 88.4618 12.3495 88.0229 12.2595 87.5718Z" fill="#202124" fill-opacity="0.24"/>
<path d="M14.5084 87.3484C14.9595 87.2584 15.2529 86.8195 15.1629 86.3684C15.0729 85.9173 14.634 85.624 14.1829 85.714C13.7317 85.804 13.4384 86.2429 13.5284 86.694C13.6184 87.1451 14.0573 87.4384 14.5084 87.3484Z" fill="#202124" fill-opacity="0.24"/>
<path d="M22.4529 98.0907C22.0017 98.1807 21.7084 98.6195 21.7984 99.0707C21.8884 99.5218 22.3273 99.8151 22.7784 99.7251C23.2295 99.6351 23.5229 99.1962 23.4329 98.7451C23.3429 98.294 22.904 98.0007 22.4529 98.0907Z" fill="#202124" fill-opacity="0.24"/>
<path d="M23.0006 93.0229C23.0906 93.474 23.5295 93.7673 23.9806 93.6773C24.4317 93.5873 24.7251 93.1484 24.6351 92.6973C24.5451 92.2462 24.1062 91.9529 23.6551 92.0429C23.204 92.1329 22.9106 92.5718 23.0006 93.0229Z" fill="#202124" fill-opacity="0.24"/>
<path d="M20.2306 86.9162C19.7795 87.0062 19.4862 87.4451 19.5762 87.8962C19.6662 88.3473 20.1051 88.6407 20.5562 88.5507C21.0073 88.4607 21.3006 88.0218 21.2106 87.5707C21.1206 87.1195 20.6817 86.8262 20.2306 86.9162Z" fill="#202124" fill-opacity="0.24"/>
<path d="M23.6551 95.1851C23.204 95.2751 22.9106 95.714 23.0006 96.1651C23.0906 96.6162 23.5295 96.9095 23.9806 96.8195C24.4317 96.7295 24.7251 96.2907 24.6351 95.8395C24.5451 95.3884 24.1062 95.0951 23.6551 95.1851Z" fill="#202124" fill-opacity="0.24"/>
<path d="M22.7773 90.774C23.2284 90.684 23.5217 90.2451 23.4317 89.794C23.3417 89.3429 22.9029 89.0495 22.4517 89.1395C22.0006 89.2295 21.7073 89.6684 21.7973 90.1195C21.8873 90.5707 22.3262 90.864 22.7773 90.774Z" fill="#202124" fill-opacity="0.24"/>
<path d="M17.6506 87.3484C18.1017 87.2584 18.3951 86.8195 18.3051 86.3684C18.2151 85.9173 17.7762 85.624 17.3251 85.714C16.874 85.804 16.5806 86.2429 16.6706 86.694C16.7606 87.1451 17.1995 87.4384 17.6506 87.3484Z" fill="#202124" fill-opacity="0.24"/>
<path d="M8.79749 56.9905C10.485 56.9905 11.853 55.6225 11.853 53.935C11.853 52.2474 10.485 50.8794 8.79749 50.8794C7.10995 50.8794 5.74193 52.2474 5.74193 53.935C5.74193 55.6225 7.10995 56.9905 8.79749 56.9905Z" fill="#202124" fill-opacity="0.24"/>
<path d="M8.79749 58.1016C6.46971 58.1016 4.39193 59.675 3.74415 61.9261C3.64082 62.2839 3.7886 62.6672 4.10415 62.8639C5.51971 63.7461 7.14193 64.2127 8.79749 64.2127C10.453 64.2127 12.0764 63.7461 13.4908 62.8639C13.8064 62.6672 13.9542 62.285 13.8508 61.9261C13.203 59.675 11.1253 58.1016 8.79749 58.1016Z" fill="#202124" fill-opacity="0.24"/>
<path d="M1.71415 56.7327C1.62415 56.2816 1.18527 55.9883 0.734154 56.0783C0.283043 56.1683 -0.0102904 56.6072 0.0797096 57.0583C0.16971 57.5094 0.608598 57.8027 1.05971 57.7127C1.51082 57.6227 1.80415 57.1839 1.71415 56.7327Z" fill="#202124" fill-opacity="0.24"/>
<path d="M2.26193 51.665C2.71304 51.575 3.00638 51.1361 2.91638 50.685C2.82638 50.2339 2.38749 49.9405 1.93638 50.0305C1.48526 50.1205 1.19193 50.5594 1.28193 51.0105C1.37193 51.4616 1.81082 51.755 2.26193 51.665Z" fill="#202124" fill-opacity="0.24"/>
<path d="M1.93749 58.9816C1.48638 59.0716 1.19304 59.5105 1.28304 59.9616C1.37304 60.4127 1.81193 60.7061 2.26304 60.6161C2.71415 60.5261 3.00749 60.0872 2.91749 59.6361C2.82749 59.185 2.3886 58.8916 1.93749 58.9816Z" fill="#202124" fill-opacity="0.24"/>
<path d="M1.05971 54.5705C1.51082 54.4805 1.80415 54.0416 1.71415 53.5905C1.62415 53.1394 1.18527 52.8461 0.734154 52.9361C0.283043 53.0261 -0.0102904 53.465 0.0797096 53.9161C0.16971 54.3672 0.608598 54.6605 1.05971 54.5705Z" fill="#202124" fill-opacity="0.24"/>
<path d="M5.13971 48.4639C5.04971 48.0127 4.61082 47.7194 4.15971 47.8094C3.7086 47.8994 3.41526 48.3383 3.50526 48.7894C3.59526 49.2405 4.03415 49.5339 4.48526 49.4439C4.93638 49.3539 5.22971 48.915 5.13971 48.4639Z" fill="#202124" fill-opacity="0.24"/>
<path d="M7.3886 48.2405C7.83971 48.1505 8.13304 47.7116 8.04304 47.2605C7.95304 46.8094 7.51415 46.5161 7.06304 46.6061C6.61193 46.6961 6.3186 47.135 6.4086 47.5861C6.4986 48.0372 6.93749 48.3305 7.3886 48.2405Z" fill="#202124" fill-opacity="0.24"/>
<path d="M15.333 58.9827C14.8819 59.0727 14.5886 59.5116 14.6786 59.9627C14.7686 60.4139 15.2075 60.7072 15.6586 60.6172C16.1097 60.5272 16.403 60.0883 16.313 59.6372C16.223 59.1861 15.7842 58.8927 15.333 58.9827Z" fill="#202124" fill-opacity="0.24"/>
<path d="M15.8808 53.915C15.9708 54.3661 16.4097 54.6594 16.8608 54.5694C17.3119 54.4794 17.6053 54.0405 17.5153 53.5894C17.4253 53.1383 16.9864 52.845 16.5353 52.935C16.0842 53.025 15.7908 53.4639 15.8808 53.915Z" fill="#202124" fill-opacity="0.24"/>
<path d="M13.1108 47.8083C12.6597 47.8983 12.3664 48.3372 12.4564 48.7883C12.5464 49.2394 12.9853 49.5327 13.4364 49.4427C13.8875 49.3527 14.1808 48.9139 14.0908 48.4627C14.0008 48.0116 13.5619 47.7183 13.1108 47.8083Z" fill="#202124" fill-opacity="0.24"/>
<path d="M16.5353 56.0772C16.0842 56.1672 15.7908 56.6061 15.8808 57.0572C15.9708 57.5083 16.4097 57.8016 16.8608 57.7116C17.3119 57.6216 17.6053 57.1827 17.5153 56.7316C17.4253 56.2805 16.9864 55.9872 16.5353 56.0772Z" fill="#202124" fill-opacity="0.24"/>
<path d="M15.6575 51.6661C16.1086 51.5761 16.4019 51.1372 16.3119 50.6861C16.2219 50.235 15.783 49.9416 15.3319 50.0316C14.8808 50.1216 14.5875 50.5605 14.6775 51.0116C14.7675 51.4627 15.2064 51.7561 15.6575 51.6661Z" fill="#202124" fill-opacity="0.24"/>
<path d="M10.5308 48.2405C10.9819 48.1505 11.2753 47.7116 11.1853 47.2605C11.0953 46.8094 10.6564 46.5161 10.2053 46.6061C9.75415 46.6961 9.46082 47.135 9.55082 47.5861C9.64082 48.0372 10.0797 48.3305 10.5308 48.2405Z" fill="#202124" fill-opacity="0.24"/>
</g>
<defs>
<clipPath id="clip0_1249_15590">
<rect width="111.558" height="111.728" fill="white" transform="translate(0.0634766 0.0209961)"/>
</clipPath>
</defs>
</svg>
