<svg width="20" height="20" viewBox="0 0 20 20" fill="none" xmlns="http://www.w3.org/2000/svg">
<g clip-path="url(#clip0_1249_14493)">
<path d="M5.54102 3.28917C6.40546 2.71362 7.38768 2.30028 8.44324 2.09473" stroke="#A37303" stroke-width="1.5" stroke-linecap="round" stroke-linejoin="round"/>
<path d="M2.08789 8.47761C2.29345 7.40206 2.71234 6.40317 3.30011 5.52539" stroke="#A37303" stroke-width="1.5" stroke-linecap="round" stroke-linejoin="round"/>
<path d="M11.5566 2.09473C12.6122 2.30028 13.5944 2.71362 14.4589 3.28917" stroke="#A37303" stroke-width="1.5" stroke-linecap="round" stroke-linejoin="round"/>
<path d="M16.7002 5.52539C17.288 6.40317 17.7069 7.40206 17.9124 8.47761" stroke="#A37303" stroke-width="1.5" stroke-linecap="round" stroke-linejoin="round"/>
<path d="M11.5566 17.9044C12.6122 17.6989 13.5944 17.2855 14.4589 16.71" stroke="#A37303" stroke-width="1.5" stroke-linecap="round" stroke-linejoin="round"/>
<path d="M16.7002 14.4727C17.288 13.595 17.7069 12.5961 17.9124 11.5205" stroke="#A37303" stroke-width="1.5" stroke-linecap="round" stroke-linejoin="round"/>
<path d="M2.08767 11.5205C2.25856 12.4147 2.577 13.2561 3.01734 14.0187C3.49467 14.9144 2.96722 17.0321 1.94434 18.055C3.33322 18.1301 5.15623 17.5072 5.97334 16.978C6.72789 17.4143 7.55989 17.7318 8.44323 17.9038" stroke="#A37303" stroke-width="1.5" stroke-linecap="round" stroke-linejoin="round"/>
</g>
<defs>
<clipPath id="clip0_1249_14493">
<rect width="20" height="20" fill="white"/>
</clipPath>
</defs>
</svg>
