<svg width="49" height="20" viewBox="0 0 49 20" fill="none" xmlns="http://www.w3.org/2000/svg">
<g clip-path="url(#clip0_1249_8999)">
<path fill-rule="evenodd" clip-rule="evenodd" d="M48.0668 10.3325C48.0668 6.91448 46.4115 4.21664 43.2461 4.21664C40.0691 4.21664 38.1455 6.9139 38.1455 10.3052C38.1455 14.3244 40.4153 16.3537 43.673 16.3537C45.2621 16.3537 46.4638 15.9936 47.3716 15.486V12.8155C46.4638 13.2696 45.4224 13.5496 44.1005 13.5496C42.8053 13.5496 41.657 13.0954 41.5101 11.5203H48.0383C48.0383 11.346 48.0651 10.6525 48.0651 10.3319L48.0668 10.3325ZM41.4764 9.06462C41.4764 7.55569 42.3976 6.92842 43.2392 6.92842C44.0534 6.92842 44.9217 7.55569 44.9217 9.06462H41.4764ZM32.9984 4.2178C31.6898 4.2178 30.8494 4.83171 30.3813 5.25918L30.2071 4.43154H27.2641V20L30.602 19.2926L30.6154 15.5139C31.0963 15.8612 31.8037 16.3549 32.9792 16.3549C35.3692 16.3549 37.5455 14.4382 37.5455 10.1995C37.5322 6.32728 35.3292 4.21722 32.992 4.21722L32.9984 4.2178ZM32.1969 13.4177C31.4093 13.4177 30.9424 13.1372 30.6212 12.7905L30.6078 7.83621C30.9551 7.44882 31.4355 7.18223 32.1969 7.18223C33.4119 7.18223 34.2529 8.54421 34.2529 10.293C34.2529 12.0819 33.4253 13.4177 32.1969 13.4177ZM22.6717 3.43023L26.0229 2.71003V0L22.6717 0.70742V3.43023ZM22.6717 4.4449H26.0229V16.1278H22.6717V4.4449ZM19.0794 5.43226L18.8657 4.4449H15.9814V16.1289H19.3193V8.21025C20.1069 7.18223 21.4421 7.36925 21.8563 7.51619V4.44548C21.4288 4.28518 19.867 3.99129 19.0788 5.43285L19.0794 5.43226ZM12.4037 1.54087L9.14593 2.2361L9.13257 12.931C9.13257 14.9069 10.6148 16.3624 12.5907 16.3624C13.6855 16.3624 14.4864 16.162 14.9273 15.921V13.2104C14.4998 13.3846 12.3903 13.998 12.3903 12.0221V7.2891H14.9273V4.4449H12.3891L12.4037 1.54087ZM3.37796 7.82983C3.37796 7.30884 3.80543 7.10963 4.51285 7.10963C5.66758 7.13422 6.80084 7.42649 7.82344 7.96341V4.83229C6.71526 4.39088 5.62045 4.21838 4.51285 4.21838C1.80224 4.21838 0 5.6338 0 7.9971C0 11.6823 5.07391 11.0945 5.07391 12.6842C5.07391 13.2981 4.53957 13.4985 3.79207 13.4985C2.6839 13.4985 1.26848 13.0443 0.146944 12.4298V15.6068C1.3887 16.1411 2.6444 16.3618 3.79207 16.3618C6.56948 16.3618 8.47917 14.9865 8.47917 12.5965C8.46581 8.61798 3.37796 9.3254 3.37796 7.82983Z" fill="#6772E5"/>
</g>
<defs>
<clipPath id="clip0_1249_8999">
<rect width="48.0668" height="20" fill="white"/>
</clipPath>
</defs>
</svg>
