<svg width="24" height="18" viewBox="0 0 24 18" fill="none" xmlns="http://www.w3.org/2000/svg">
<g clip-path="url(#clip0_1249_8997)">
<path opacity="0.2" fill-rule="evenodd" clip-rule="evenodd" d="M14.837 1.5C14.1146 2.00713 13.525 2.68088 13.1182 3.4642C12.7114 4.24753 12.4993 5.11734 12.5 6C12.5 7.33 12.972 8.55 13.757 9.5H3.5C3.23478 9.5 2.98043 9.60536 2.79289 9.79289C2.60536 9.98043 2.5 10.2348 2.5 10.5V11.5C2.5 11.7652 2.60536 12.0196 2.79289 12.2071C2.98043 12.3946 3.23478 12.5 3.5 12.5H19.5C19.7652 12.5 20.0196 12.3946 20.2071 12.2071C20.3946 12.0196 20.5 11.7652 20.5 11.5V10.9C21.2976 10.4917 21.984 9.89559 22.5 9.163V15.5C22.5 16.0304 22.2893 16.5391 21.9142 16.9142C21.5391 17.2893 21.0304 17.5 20.5 17.5H2.5C1.96957 17.5 1.46086 17.2893 1.08579 16.9142C0.710714 16.5391 0.5 16.0304 0.5 15.5V3.5C0.5 2.96957 0.710714 2.46086 1.08579 2.08579C1.46086 1.71071 1.96957 1.5 2.5 1.5H14.837ZM21.544 1.793C21.783 1.995 22.004 2.217 22.206 2.456C22.0406 2.18594 21.8138 1.95877 21.544 1.793Z" fill="#77787D"/>
<path opacity="0.4" fill-rule="evenodd" clip-rule="evenodd" d="M13.1 3.5C12.6267 4.42493 12.4262 5.46542 12.522 6.5H0.5V3.5H13.1Z" fill="#77787D"/>
<path fill-rule="evenodd" clip-rule="evenodd" d="M18 11.5C16.5413 11.5 15.1424 10.9205 14.1109 9.88909C13.0795 8.85764 12.5 7.45869 12.5 6C12.5 4.54131 13.0795 3.14236 14.1109 2.11091C15.1424 1.07946 16.5413 0.5 18 0.5C19.4587 0.5 20.8576 1.07946 21.8891 2.11091C22.9205 3.14236 23.5 4.54131 23.5 6C23.5 7.45869 22.9205 8.85764 21.8891 9.88909C20.8576 10.9205 19.4587 11.5 18 11.5ZM15.816 3.721H15.195L13.679 4.491V5.277L14.881 4.649V8.279H15.824V3.72H15.816V3.721ZM17.623 4.35C18.071 4.35 18.385 4.601 18.385 4.963C18.385 5.356 18.015 5.631 17.481 5.631H17.246V6.299H17.529C18.094 6.299 18.479 6.581 18.479 6.99C18.479 7.383 18.102 7.65 17.568 7.65C17.175 7.65 16.782 7.524 16.374 7.28V8.066C16.814 8.255 17.254 8.357 17.686 8.357C18.715 8.357 19.422 7.831 19.422 7.069C19.422 6.534 19.092 6.102 18.542 5.929C19.014 5.772 19.32 5.356 19.32 4.884C19.32 4.146 18.668 3.643 17.725 3.643C17.2998 3.64762 16.88 3.73845 16.491 3.91V4.68C16.869 4.468 17.254 4.35 17.623 4.35V4.35ZM21.017 6.063C21.591 6.063 21.991 6.401 21.991 6.841C21.991 7.304 21.591 7.626 21.017 7.626C20.671 7.626 20.31 7.516 19.941 7.289V8.098C20.326 8.271 20.719 8.358 21.104 8.358C21.308 8.358 21.496 8.326 21.677 8.278C22.0971 7.59822 22.32 6.8151 22.321 6.016L22.306 5.686C22.0138 5.51277 21.6786 5.42543 21.339 5.434C21.1891 5.43346 21.0393 5.44415 20.891 5.466V4.444H22.023C21.9247 4.19245 21.8035 3.95044 21.661 3.721H20.074V6.196C20.3817 6.11331 20.6984 6.06864 21.017 6.063V6.063Z" fill="#77787D"/>
</g>
<defs>
<clipPath id="clip0_1249_8997">
<rect width="23" height="17" fill="white" transform="translate(0.5 0.5)"/>
</clipPath>
</defs>
</svg>
